<mxfile host="65bd71144e">
    <diagram id="ONxVlB1V5Yb0ig7tFxse" name="第 1 页">
        <mxGraphModel dx="1144" dy="558" grid="1" gridSize="10" guides="1" tooltips="1" connect="1" arrows="1" fold="1" page="1" pageScale="1" pageWidth="827" pageHeight="1169" math="0" shadow="0">
            <root>
                <mxCell id="0"/>
                <mxCell id="1" parent="0"/>
                <mxCell id="114" value="" style="rounded=0;whiteSpace=wrap;html=1;comic=1;sketch=0;align=left;fillColor=#d5e8d4;strokeColor=#82b366;" vertex="1" parent="1">
                    <mxGeometry x="527.94" y="552" width="314.12" height="160" as="geometry"/>
                </mxCell>
                <mxCell id="84" value="" style="rounded=0;whiteSpace=wrap;html=1;comic=1;sketch=0;align=center;fillColor=#dae8fc;strokeColor=#6c8ebf;" vertex="1" parent="1">
                    <mxGeometry x="452" y="1370" width="348" height="350" as="geometry"/>
                </mxCell>
                <mxCell id="28" value="" style="rounded=0;whiteSpace=wrap;html=1;comic=1;fillColor=#dae8fc;strokeColor=#6c8ebf;sketch=0;" parent="1" vertex="1">
                    <mxGeometry x="217" y="630" width="300" height="140" as="geometry"/>
                </mxCell>
                <mxCell id="13" value="" style="rounded=0;whiteSpace=wrap;html=1;comic=1;fillColor=#dae8fc;strokeColor=#6c8ebf;sketch=0;" parent="1" vertex="1">
                    <mxGeometry x="170" y="205" width="329" height="140" as="geometry"/>
                </mxCell>
                <mxCell id="2" value="当前注册层只实现了基于zookeeper的注册中心，因此服务注册和服务发现模块页只有基于zookeeper的实现" style="rounded=0;whiteSpace=wrap;html=1;comic=1;fillColor=#ffe6cc;strokeColor=#d79b00;sketch=1;" parent="1" vertex="1">
                    <mxGeometry x="329" y="50" width="170" height="60" as="geometry"/>
                </mxCell>
                <mxCell id="3" value="服务注册逻辑" style="rounded=0;whiteSpace=wrap;html=1;comic=1;fillColor=#f8cecc;strokeColor=#b85450;sketch=0;" parent="1" vertex="1">
                    <mxGeometry x="364" y="140" width="100" height="40" as="geometry"/>
                </mxCell>
                <mxCell id="8" style="edgeStyle=none;html=1;exitX=0.5;exitY=1;exitDx=0;exitDy=0;entryX=0.5;entryY=0;entryDx=0;entryDy=0;fontSize=11;sketch=1;dashed=1;" parent="1" source="4" target="7" edge="1">
                    <mxGeometry relative="1" as="geometry"/>
                </mxCell>
                <mxCell id="10" style="edgeStyle=none;sketch=1;html=1;exitX=1;exitY=0.5;exitDx=0;exitDy=0;entryX=0;entryY=0.5;entryDx=0;entryDy=0;fontSize=11;" parent="1" source="4" target="5" edge="1">
                    <mxGeometry relative="1" as="geometry"/>
                </mxCell>
                <mxCell id="4" value="ServiceProvider# publishService" style="rounded=0;whiteSpace=wrap;html=1;comic=1;sketch=0;" parent="1" vertex="1">
                    <mxGeometry x="40" y="250" width="100" height="40" as="geometry"/>
                </mxCell>
                <mxCell id="12" style="edgeStyle=none;sketch=1;html=1;exitX=0.5;exitY=1;exitDx=0;exitDy=0;entryX=0.5;entryY=0;entryDx=0;entryDy=0;fontSize=11;" parent="1" source="5" target="11" edge="1">
                    <mxGeometry relative="1" as="geometry"/>
                </mxCell>
                <mxCell id="5" value="&lt;div&gt;在serviceMap容器中注册服务&lt;/div&gt;&lt;div&gt;（服务接口名+group+version -&amp;gt; 服务对象）&lt;/div&gt;" style="rounded=0;whiteSpace=wrap;html=1;comic=1;sketch=0;" parent="1" vertex="1">
                    <mxGeometry x="210" y="220" width="250" height="40" as="geometry"/>
                </mxCell>
                <mxCell id="6" value="&lt;pre style=&quot;background-color: rgb(255 , 255 , 255) ; color: rgb(8 , 8 , 8) ; font-family: &amp;#34;consolas&amp;#34; , monospace ; font-size: 11px&quot;&gt;&lt;font style=&quot;font-size: 11px&quot;&gt;&lt;span style=&quot;color: rgb(0 , 51 , 179)&quot;&gt;public class &lt;/span&gt;&lt;span style=&quot;color: rgb(6 , 101 , 85)&quot;&gt;ZkServiceProviderImpl &lt;/span&gt;&lt;span style=&quot;color: rgb(0 , 51 , 179)&quot;&gt;implements &lt;/span&gt;&lt;span style=&quot;color: rgb(108 , 0 , 213)&quot;&gt;ServiceProvider &lt;/span&gt;{&lt;span style=&quot;color: rgb(140 , 140 , 140) ; font-style: italic&quot;&gt;&lt;br&gt;&lt;/span&gt;&lt;span style=&quot;color: rgb(140 , 140 , 140) ; font-style: italic&quot;&gt;    &lt;/span&gt;&lt;span style=&quot;color: rgb(0 , 51 , 179)&quot;&gt;private final &lt;/span&gt;&lt;span style=&quot;color: rgb(108 , 0 , 213)&quot;&gt;Map&lt;/span&gt;&amp;lt;&lt;span style=&quot;color: rgb(6 , 101 , 85)&quot;&gt;String&lt;/span&gt;, &lt;span style=&quot;color: rgb(6 , 101 , 85)&quot;&gt;Object&lt;/span&gt;&amp;gt; &lt;span style=&quot;color: rgb(135 , 16 , 148)&quot;&gt;serviceMap&lt;/span&gt;;&lt;br&gt;    &lt;span style=&quot;color: rgb(0 , 51 , 179)&quot;&gt;private final &lt;/span&gt;&lt;span style=&quot;color: rgb(108 , 0 , 213)&quot;&gt;ServiceRegistry &lt;/span&gt;&lt;span style=&quot;color: rgb(135 , 16 , 148)&quot;&gt;serviceRegistry&lt;/span&gt;;&lt;/font&gt;&lt;/pre&gt;&lt;pre style=&quot;background-color: rgb(255 , 255 , 255) ; color: rgb(8 , 8 , 8) ; font-family: &amp;#34;consolas&amp;#34; , monospace ; font-size: 11px&quot;&gt;&lt;font style=&quot;font-size: 11px&quot;&gt;}&lt;/font&gt;&lt;/pre&gt;" style="rounded=0;whiteSpace=wrap;html=1;comic=1;sketch=0;align=left;" parent="1" vertex="1">
                    <mxGeometry x="20" y="380" width="400" height="80" as="geometry"/>
                </mxCell>
                <mxCell id="9" style="edgeStyle=none;sketch=1;html=1;exitX=0.5;exitY=1;exitDx=0;exitDy=0;entryX=0.5;entryY=0;entryDx=0;entryDy=0;fontSize=11;" parent="1" source="7" target="6" edge="1">
                    <mxGeometry relative="1" as="geometry"/>
                </mxCell>
                <mxCell id="7" value="ServiceProvider实现类中的属性" style="rounded=0;whiteSpace=wrap;html=1;comic=1;sketch=0;fillColor=#ffe6cc;strokeColor=#d79b00;" parent="1" vertex="1">
                    <mxGeometry x="45" y="320" width="90" height="40" as="geometry"/>
                </mxCell>
                <mxCell id="15" style="edgeStyle=none;sketch=1;html=1;exitX=0;exitY=0.5;exitDx=0;exitDy=0;entryX=1;entryY=0.5;entryDx=0;entryDy=0;fontSize=11;" parent="1" source="11" target="4" edge="1">
                    <mxGeometry relative="1" as="geometry"/>
                </mxCell>
                <mxCell id="17" style="edgeStyle=none;sketch=1;html=1;exitX=1;exitY=0.5;exitDx=0;exitDy=0;entryX=0;entryY=0.5;entryDx=0;entryDy=0;fontSize=11;" parent="1" source="11" target="16" edge="1">
                    <mxGeometry relative="1" as="geometry"/>
                </mxCell>
                <mxCell id="11" value="通过serviceRegistry对象将服务注册到注册中心" style="rounded=0;whiteSpace=wrap;html=1;comic=1;sketch=0;align=center;" parent="1" vertex="1">
                    <mxGeometry x="195" y="290" width="280" height="40" as="geometry"/>
                </mxCell>
                <mxCell id="20" style="edgeStyle=none;sketch=1;html=1;exitX=0.5;exitY=1;exitDx=0;exitDy=0;entryX=0.5;entryY=0;entryDx=0;entryDy=0;fontSize=11;" parent="1" source="16" target="19" edge="1">
                    <mxGeometry relative="1" as="geometry"/>
                </mxCell>
                <mxCell id="16" value="注册到注册中心zookeeper&lt;br&gt;（创建“/my-rpc/服务接口名+group+version/IP地址:端口号”节点）" style="rounded=0;whiteSpace=wrap;html=1;comic=1;sketch=0;align=left;" parent="1" vertex="1">
                    <mxGeometry x="510" y="290" width="350" height="40" as="geometry"/>
                </mxCell>
                <mxCell id="19" value="" style="shape=image;verticalLabelPosition=bottom;labelBackgroundColor=#ffffff;verticalAlign=top;aspect=fixed;imageAspect=0;image=data:image/png,iVBORw0KGgoAAAANSUhEUgAAAgUAAAE6CAYAAACGWCHoAAAgAElEQVR4nOzdeVhV1frA8e8+HEDmSRERERUUZ3HOITXn4Zapaak3Nb1p4bXBSkvTSs3wVma/cMisNOcprdRMzcp5RgUFJxQcEAUBZToC6/cHiMwcEET0/TzPeR49rL32u/Y+w3vWXmtt7fz58yopKYmFCxcycuRIhBBCCPHksHesSEz0TQD0Wf/Qf8nNMglICCGEEA/fupcr4uDggJurCwC6Mo5HCCGEEI8ISQqEEEIIAUhSIIQQQogMkhQIIYQQApCkQAghhBAZJCkQQgghBJBjSqIQQghR3tha6BnWzg1vV2sauNngYmde1iE9dDdvGzh5+Tanr95h1f6rRMQmF6seSQqEEEKUWy1r2fO/F+viYmfO2Yh49p69xdVbSWUd1kNX2c6cBm42PF3HkaFtqjLz13OsPxxR5HokKRBCCFEutaxlz0+jm3A2Ip4xP5zk9NU7ZR1SmavqUIEvh9Rj5kBvLM1MWLr3SpG2L35SoC1ige5PKhRrYyui1VTeSqta7N0LIYR4ctla6Pnfi3U5GxHPwG+OkmBILeuQHglXbiUxeO4xfvxPY8b3qsnO01FcKULPSYn0FKTwDBdVZZRRpW9RSfsdRy0QkKRACCFE0Q1r54aLnTljfjgpCUEOqWmKd1eeZsu7LXmtc3Umrw0xetsHTgpSscKEvTgzgRlptSn8CkYQn5r8jv2D7ljkyYQEnLAkslhbJ+CCpRHnUAghylZjd1t2hUTLJYN8RMQmcyQ0tsiDLh94SuJtNZUQZYKN5sck3RlcHrRCUSx6LYgpunf51uQbhha7lp18YDKS+boVjNOevIE6Qojyw8vFihu3DWUdxiPt9NU7tPFyKNI2JbBOQVVmpkliUHYUNbQ1zNbNpJYWR7JqzoVi1+VFhKqMifYbzXRT+FR3rQTjFEKIkuNiZ16ka+VPouSUNEx0WpG2KaHZB+mJwfu6j6mj+TFJZ+ylBPGgLLTNvKXbgA2NOZU2Dj+Ve+inCcG8r1uEh3YNUxRgSYLqz560HizNVrI2n6Z9ioW2m2m6+VTVZvOxNoupxg0WEUKIx5w5b4xrxghXMyx0gFIk3I5j9uxjLIlPL/HVlKfpaZ3l97ZSJCUksOKbQ3wWVSZBF0kJrmiY0WMA2GrrGFZyFYt8xTJWW4cdlbmcT0IAJ5hmMh0v7Qap6hkuqL5cxQwL7Se6mKzI81JDomrHh2nPcYcruGvbaF7azRBCiHKg7X+aMbKqKSbJyZy9FMf526mY2tjy9hv1aZC1YIqBwweusfp4DOdvp2JiacWQ1xtkL/OIKuFljqsyU3kAKbJ+8kNgou2mmpZMmurJhjwTAoW3bj2u6IlVMxmd9gofp73A+6kzOaAc0NhJo3xOVKJ6ljPKEp32F72K1vskhBCPIXNerqLHPPUuuxbuo4//UXpNDyIgQWFhbceLVlnLKo6vC+HDZQH0mh7E8QSFmYUNvcoq9CJ4ZBcvGjW+HW9X1nHndhrW1nq01Lucv3iXyjUtsdUU8TFR/GdmIEcwY+YHrXneXuP2lTO0mJPlOriNN39NdKGKSQpB63fT72ARg2jbmoDnzFG34ggzs8HLUoeJBql373I5+CTdforLKFiRdR/Vp4FFGlevGbCpXAFrEw1NKRIT4ln9f4f5NDprxWaMfL0ZvtXMsDTR0IDU1FRuRV5j0OxzXDYyPDvtDFaYcBsfDudZIoU2JJKCO1GqSpbnbVmh6tFUO4A5MZDnXBBzllGLxgRjr4GR802FEOIx5Up1vUbqXQP/ZH5I3+JQQhpNLXQ0agjsz2u7BO4oBQrSHlqsxfeI/6DXYWWWxo34VJReT00Pc1JuG7idpmFlZ89H7QAMvB9kIElpWFd0540sW1fs6YCDHlKTEvihqAlBFnprGzzN04iOSSIiPhX0plSv34gNLXLH61y5AvokA1di7xKfChZW1rz0eiPc7tfGkDda8LaHOZZaGnFxSVyOvYtBM6FilapseMfD6LhMiEWPjhQq5lPClO/T/BiV+gkfZ/tSV7hokZiiI6WAyaF3lQMppGKJ8XNchRBC3GPNG681pYWlRmJ8HL+XdThGeMSTgjRigg/T4ZNIolM0UhOj+NeMvSyKSiFVp8Ph3jSHjdeJNCh0Zmb06XlvWzPGe5pirqURc/k8vxY7Bg1T7vLn57tpN3M/HT7exze3UknTmeD+TK2cRUm4foYmH++j84w9NP0+luhUMLOy5uPMQpUZVckUfVoKIet20XL6fjrP2EP7X+4Ql6Zh7eDCrGLHaqwzDNHOoVGXCOkBEEKIohnQmgC/DhybWD3vv+vNGTmrIyGzmvN6DXPMkhJYsSCIwIcbZbGUweUDfZF6olVylnmoKpWbwN1cFYSy8GZVPq6qx9nHm4pbgrlp40l7ax1aioF9q2KzlXZrXINRnmaY5KglJjSUL47mnveaZkjgv5nd/ynM3XWXV5+rgLm5VfaCKo3Yi1kuX5y7zNVkOxwtTKjWB/gNqO+ClR7SUu5y5ND9orf3nuNwqzp46ZMJK+ygPJA4XtP5Uw09serf/E+SAiGEKBaV3+dnioHDR6K4gAk1PB1o7GjFkNcbsXPaCR6g0/qhKIOkoA7p609FMhBYXUK1rtkYx1ujHXG0cmC8DawdZI+9HpJiopl5O3vZV3q6McjRJFc3SWKdO3xx1IibR5wM5ScXeywijZ/Hryv0SMfw2uwDRtdXPHGM0U2nhRZNqhrJurQqhW8ihBAiu7X7abI2/Z9vvFstjwLpAw3Te33N+d8HLelja8vE5tAv7wFgj4wyGWj4l2qAl/YHz+iasjqtfslUejGYffGt6WNrSodBVXF21WOqUrkRFMzNHEX3hifSjtxJQUJEvHH7irvOF+uul0TUD9Ed+utm01K7ilIjWZLWib/LOiQhhHjsJfPFtVR62uupWLmsYylciScFA/MdzX7fvrQ3aKP7L4209bxPfWaWyJ4NzDxzly7NzLF1c6eBuY40QyIbNuYuuX3ZYbaXyD6Nl5ZSWAl75r2Vfvlgw/8C+MaIOlOxI4U09NyEfAcbppfso/uC3tpZlBrOWiMTAlPtFnp0xJLPdTMhhHhiXOVSSjVqVDDjaTdYeRnAgRaWOkzSUjhxMv8tR7uYYJKWRtythxVr8ZVsUqBtpa0WgaIDfxVY0JIv8GAxN7ApweluN1dHcL2hO9UtzLHTFHduXmNOyVRtHE2HnUcVIOOygqcbruYapKUS/ltGmaAI4lNssNOb0qYb8Ef60zZtPGle2QKbVA13I3cXq2oTrx3GhmM0p2s+0xJT6aObyfPaWZR6ia1pXdhiVO3JDOE8JlTkTp5rIAghxJMkmSXXUnjK05T2/3mK3yKT0TlY4m6pkRgby8psHc0ajfvXYVoFC3yqW+NuZ4JKusPSvWUVu/FKNCkYr63EntqcSXuWfSVZsdHuDzg0SUslbFfpDtnLJU1h5lybgKkeRKXocLDSY2UChrg7TM0sdJ3vbnjwQVVTPJ5pz8GWd7mtTHCyMcVCp7h9M4L3jNxdqmrHFbWWetoW+mrtOZzHl7eVtpre2mlMqM0VFLV1vzE5a8g04NO03NMgLbSteGoJpNGLozIYUQgh2LPwCIvGNWOEqzle1c1RKo3E23HMnpNjZoHejOatqqSvBqsUhqQkdi45zMqyCbtISjApCMJJMwCtmVGGXyI7r6Uy2VUPD7g2QbFoiujIZGwqV6DqvcWL4u+weu6JLAsSpbBsziEqZCxeZGtbATvSFy+6ee0ag2ZfLMIO7fhaDcBPW46b7nMmpb3DjByJgZ44TACNM7hpZ3LVkKbGANmTgvR7H6zGlqqEpfXk5yJEJIQQj69k5ny9t8Ae6Dc/+Yc3H1o8Je+BkwKNBMAyyzPBTNbdNWLLmAL/+t0Xu/ku838htPsgJJ+/ZWXG+7VNqaClEfVAaxNk2LOfJnuKtknqxQM0/6qwUgYWzd3HouLGlUWi6sWctGu8p9tJbZ0v81V/dqf1yrzRUawazaupo42s7Qwf6BZSS7uKHici1Vt8KJcOhBDiiaGftXQv/fs0LcamjYjhL1y0yczQpjMps3fgIF6acT/RFV05V5K9Ch7ePGWlgzzWJnh8aZxXo/BNe4oPtAV4aIE4F3uF7bO4aJGk0Z0jaQP5WhICIcQj6lb8XSramJV1GI+0ot42GUB/+cRWZodcwMUJMC3ClqoFE9J8maXzx003mRlpIzL+8Dwb0oy5r545p1UVgosccv5eeM4We5O81yZ43KWo+nyivsaEBJyKXUtb5qb2LtFzIoQQpSHw8m3cHOSHS0EautmwKyS68IJZ6N10EJYQzOmbOmhcxD2q1ryXRkZi8H+kz7qz4Wdl/Pr9JWnNnN2sKZM936T/R4/GrP9ULIks9tb2khAIIcqF01fvMLJDNao6VODKraSyDueRY2uhp0ExkgLd2KF1sQHUnWIuxqNa816aLxEkoceBSOVTvHqEEEIII+0KiebizUTe7lkTW4tH9oa/ZcLWQs9Hz9cmLjGFNYeMX3kXQG/ZoDNdKgWyKDK5+BGo1kxIbV387YUQQogiOHghhu/+CmPmQG8crUx5f3UwEbEP8D32mLC10DN9QB26N6zEor/DOXi+4EH9OemhEo6VSik6IYQQopSsPxyBpZkJ43vVZMu7LTlwPoazEfEYUtLKOrSHTqfTqO1iRTMPO2wt9Cz6O5wvtlwocj16Us9yLrQUIhRCCCFK2dK9V9h5OoqxXT2o62rN03UcizXq/nFwNiKeXSHRLNt7hYCwuGLVob++Ywd7EiH7WgNCCCFE+XDlVhLvr5Zh0iVBN2v7NVIAm6o1yjoWIYQQQpQh3V3A0WcA3lVlvqcQQgjxJNMNfvVdPhjgXfL3UBZCCCFEuaKf+PMtomITcbpyB4tWZR2OEEIIIcqK/sbtVFAKpeT+uEIIIcSTTFfWAQghhBDi0ZBtKMGINrKKkRBCCPHkyH6VIFtS0MdTLiEIIYQQT6psSUGDBg3KKg4hhBBCPGSBgYHZ/i9jCoQQQggBSFIghBBCiAyZSUENT+uyjEMIIYQQZSw9KfCqiLftk3lXKSGEEEKk04EF07tZUeHuk3f/aSGEEELcpxs+ohI9bQ2cj5TpiEIIIcSTTD+uBhz87QYnJCcQQghRDiUa4tkZsokrMRe5FH2emISosg7pobOtYI+7Uy3cHGrQrlZX7C2dilWP/kbQDcbsS6FiCQcohBBClLazkUEs3vc1MQlRuNq54+3SCEfLJ2913pjEaMKiz3HqagB/n9lCf5/htK7Zqcj16N3qV+bIh3YsXGhSCmEKIYQQpeNsZBBzdkzF1c6dMT3ex83Bo6xDKnNR8ZH8uPcrlh7wJzkliQ61exZpe/2mgHgMhiTCYsvJQMPdEzi0aSmpxdlWs8Os+Uaa9vMq6aiEEEI8RImGeBbv+xpXO3fGd/sUc32Fsg7pkeBk5cxbXabxfzs/4Zfjy2hQtRlOVs5Gb69/b/0NSE2m4t3yN6hAcxqKdfXqRpa+TlLgdxgu/QNIUiCEEOXZzpBNxCREMabH+5IQ5KDTTBjWehzTNr3B1qD1DG45xuht9YUXeTRpZnaoqJ9JcltO/RebU/hLYg/Hg7/j7kOITQghROm6GHWWelV85JJBPuwtnahVqW6RB13eX+Y4MqGkYypV+sYbsXXRc/f4YIJWHiaprAMCEiIucCGifB1HIcRjyBBN2Pkwog1lHUjpuRobhq2FfVmH8Uhzc/AgOOJEkbYpx/c+8KLeG49OYhB36G0au9Wilkd7/IIf43eiEOIRd4kf/lUTD08P6o/4nYiyDqeUxCRE4Wj15M0yKAq9iSlpqmgj8MpxUgCPUmJQwaYKFStoaHqzgg/qjT34Df4Xvisu5VskZKIXmubFxJCSjDCEiV4amtdESrTah+oB23B5NX0cNDQty0NXAVu3tryzJZQnpo8nOoBFI1pQ1VKPpmnoKjhSb9BcDkXkTmajAxYxokVVLPUamqajgmM9Bs09RO6iBsK3T6arpyMVdBqapseyagHH1RDOVt/6WOs0NM2BPqsvP1CT0t8zGrraEwnKjO0yq/s4oGkaDn1WU7w9GIg49G2WY6DH0rkBgxYEEP1AEZcmc1xdrdGhw8SsLJavv8QK338x2G8PN8pg76UrkVMHvuCj1YP474oB/HflcKZt/51zWa5L7/9jFGNXDMh8/Hflv/lwyxpOJJZd1EVRzpMCyEwMnOHuic+5UEZRmHm/y747aaTd2ce73mb5F0y+wq4tv/HH8UfhgseTyaL+MD7z98ff35/Zk/pRK+EAX/RuyZA1D/bFVC7EHWVqx9aMWnwafevR+Pn78VobG8LW+NK+2wyOxt0vajj3LS90/A+LT+tpOmQys/3G0b1KBOt829N5yoFsX4rRe8fTsccMdkZXofs4P2ZPHkJT/XG+7N2SF5eHkjWHMIRvxdenLj3nXcLG1QnTEmqatWs17C6s56ezGXu7vJcle6B69eJ3MccdnUG39qP56bw9Xcf64e83ls4Ol1kzpjVd/YJ5NPsEXej+w2VSVAqXf+iOy0PffxLH//iNLbuukFxq+yibgfGRx+azPPQQyZZP09nzFTpVdOHOzR/5addebmUtaNaSvj7v80rDV+lUsSqG2NWs3L0re5lH1GOQFAB4Ua96Q1AyjFAUztyjF0Nef53XX3+dN6ct58CRxfSwu8mmmcs4V9bBlbLLv0/h65OmPD03gLN/+vPe6+/h/+cxtr9Vm7ST8/ni4L3fdnEc+3w6fyZ48db2Y+xePI033/uKjccO8s3TppxaMI3tmTnURVZPWMQFmx4sPnKMjV+9x5vTFrP72FZerRbFbx8t4Gzmt+cZZnTvybxL1Xl140n2fNkaqxJq250KnjSveYH1P53FAFzeu4Q9Zo1pVrW4NcZx+tsfOJnWmI/3prfr9fe+4teT+5nWOI2j/l9xLK7wWkQpUPFlsNNEQiJPEmvagj4dfOnbohf9urxNN3tLom8d4kLWrx/NgsrezWjaoBv9urxNVzsr4m4HFLO36uHSVbIxQZfRlSoyGMLZPrFtRveqHsuqnfDbuIA+Djm7Ie93T2Y+HPqQuyc0o9tb09CqDWJTDJzz8862nVce1wpSzq5lRF1b9Pe6eP+9nLPZ+mIz9p+rO72gbvYUzq4dQT3HCujudQc/aFdoQihb3mmbrTvas+tktoc/SHd0NAELBt2Ps/JTTNweTkreARC65R3aVrVEn3FJwLHeIOYeijDql5xZjacZ2sqOu6G7OJr13OXRLuO72T3pOnk72Q9Bxvly6MOCjX50yohXb1mVthNzli1Ku+69Dt5h977pdKhcAZ2mobetRW+/fdmObeK5KEwrNaB7Z0/u92c50nREH6qRwLWwey+wOC5dvg3Vn+fV1o5ZDpYnvV9ti11MCEczP5eTuRiRiH3bEXSokaWXzLEFYwfUQN0IJCjy/tPmtV9l48lDzP9XDQroUyuGRrw4pAFh63/irCGCE+sOYtalJzUTs3yBRGxmkLOGWZMZ5Bz6E7F5EM6aGU1m3OsByDgGVm54WWeJ1MyVAbMW4P9xP7L3QZT0+cooZ/MM3+e82mgIYmJtXfZ2hEzES9MK/VzJqICIQ3MZVC/r5Z4WjFiU12eBMe3K+lnojd85iNk0iGpZYsl1CSef91dobN7v8mxSyiJ9v8B1QzJmFWrganPvOWeqWFdEn3qDK5H5bWeDuU6HpplQHr5l9X+9W42kpCQWLrQu61geEQaCZ/elj98x9O4ded13ANUvrWXumI9JyNUXZkvjcV/i3ysRuM3BuR+z+EpeddrTb7o/7lHA7YPM/XgxkW0n8dHzrpklnJrn7OKMYNmY8bg8/Qafj4jmF//F/LV0KF2sqnNsflscKR6LlD8YP96EZr6fMfz2ThYv2cTq13qir36MZT2K0dFoCGX5iy0Z+uttqrQZwuQXfODgYvxXz6Bby1A2H1vGvWoNocsZ3vU//JZYjTZDJjOg/m12Ll7COt/2nL6+l90fN8X2Xut//y89X1vNDfsmvDh5GC05yOLRY7gVDTnX5L68ZggtB20ksVpHRvsNwOv2bhb7r8a3/Wmu793Nx01tKVDcNfaHxIFjHeplrvFxmTVDWjJoYyLVOo7Gb4AXt3cvxn+1L+1PX2fv7o+5V60h2I+urSdy3LIevce+QXeP2xxY8z2rZnSj3c1duc9X8kE+HhOId7+P+NwxiLVL1rHXrw99HQLYN8E784uyyO2K+4M3hsVhN+ATvql+ibX+i9kysRuD7I6xbUx6EuD1wT4iP8h9CCJPhRCNOY0cCu/M10z1Rn64mWFqmrMzsjYfbJhv1NZFFn0OizYv4D1zMT/t7Uj4XxpdlrXF5LUsP+FcWvCfrs6sXvEd/gH/5f9aZr7iOLp4JzdMGzB+0L1z4Ez9BpXQNu3hh79D6TvkXhJjS51uI6iTY/clf77caNXPB+tNh1i64xKvvHJ/TRbD2Z9Yf05PvWn9qXnvBWPfj+n+7kQBXP2Zj2Zsz/9QHZhC5w5+nK5Qm97jJtLTNX3/i0e15sTN4rwOs34WXuXnj2awx3kYU19vyb3vTwvPxtw/Avm/vz6t7crCaX0LPtdpMQX//ZERw6nDK/g7NhHHik0odqfVw3T+/HkVFBSk3nzzTVUu7HpPHZzoqg6vy/H8un5q38R+KijfDXergE9c1b4vvytkByFqSl1NUWmg2nTt/rNRu0crdw1l33uVCs9zu3C1qre9wr63WpV3gYxiq1Rve5TnhOB8iwRP8FRgrZ6ed1YlZwawT71d21ThPFhti8yxT88JKnttwWqCJzmeT39Os3tGLTibWatKPj1dNTZFOfVdr64UEHa+QqaouhrK9ZVdKup+rerC0h7KHmvVadHFLEXrKg1X9cqu+yVV8mk1vXE+7bJ4Ss0JyRLr2Xnqaeuc7Uo/X6aNp6vTySpXWefB29T9atOPvV3Hr9SB4GAVHBysgk/uVHP6VVfmmKuGU46o2GztMlWNp59WWSJQZ+c9raxxVoPvB6surXlDPdtntFqc5bgqFarmtbPIu12auxq9O8sxuLZJDayE0upOUSHFaVeR6s1D8mn1WVPzHK/drK+tcLW6b0VlYuWjphyJVeGreit7PNX9l3D6a8u+9yoVHntETWlorkycB6i14Rmv5QLeE+l12aveBb5pCpe5n9DTanpjK1W3S3tVzXmw2haZJbaMsrEHxioPDVVt9P775zvjWFl3WqQuZqk3+cIy9a+KmsLERtXs8rqatzVQXYvPK4JSOl8XF6lO1jk/d5LV6emNlanmpSYEZn3NZTsgypP8PmeuqPV9nXK9v+59xmgeY9WB+2+EIrQrc+e5jnkuBby/Rg8fl99W9yXtVL7L+6tNJ1cVXrbEBKo1vwxWb/+2Tl04PU9NWTFIffLXKRW061315qpJauPl9FL7to5Uvsv7Z3m8oN7btFqdSHiIoWbYdHKV8l3ev8AyJ0+eVHcSkjL//5iMKTCGHs2Y1t4I41yUwq7pszTM8sPZsfozNLQrteDy4MJTnbJ08Tq60crLCgyxRD/A6B1VqQUdPO93hZp5D6BHdYgOCeBOMeq7HHCEa8oen+4eWX4Nm1Gjy8fM9/djdIN7y0pdJuDINZS9D909snZHezOgR3W4cYxdmaNw4jkaEgNVn6Z77SyxenbiqZydGZcDOHJNYelgTVxoCCEh6Y/Q1Np4O8GNY7kH98T+9SatvL3x9vbGu2En3vj5JtVeXsrGSfd7KtLbZYmDdRyhIffqDSW1tjdO3ODY/WBxH/AVG3+dz8uu0VzILBtJst4s7/Nl15Bnqmc5Bi6N6N/SHhV5gqCrxW+XUfXmEs2BKf2ZetSUp2d+RV+3vMoYuHLlNqkJt4gurGc3OYawKAOpCVHEFmst8geQHEs0Nen/gicXdu7lbpcRNE4+TuDN7MVsm/gyqpEp4eu/ZHfGfL3L/8zljxv2dBjTjaxrpJrVGMzao38wqVMlbuycy2vdG1DF1pGWOS/3lNb5qt6ZoS2sidmzhL33+t4NF1i35hQpnv34t1dxLsDc5kBgVK73F471ePX/FvDNlH+R+VFXnHYZoaD3lzW3i1Hjw6ahaSb5D8q7N9DQZzzPV62PLm41K3f/VS5mY5TbFQ2LrhV6SyAxnDDAPb9iydHEGkDTm5aL6z8lRd1NLtnxvJVbMuj1lkUJgOQHCCD9iz6PP3jmbpdF/YxuzYhfmT79d7QRv3NgUbs8LsnE8tebrci72vu1GsK3M6X/QD4/dCv3PTmKMvA99S53c9yCpCjtys2ZLnMPEpxsTqU8b4MazZFPe9N91mls/rWUH1/xzOcaf03e/OsifW+a4epuS+TFAnZZ6RkWnLzIVENFPFx4uNNfEyO4mGxGzdd+4eSAZMwrVadSwobc5cy8GTquHZ+N3MnioxH06pXMH/P/JqZSL15/OndWZFatC9O3nWd6QgRBuzcwZ/IHfO/XjXYxuS8Nlfz5qk7noS2w3rmHJXsvM3CgG4RtZN2pFDzf/jfFygnylfdlEXjQduUn7/fX8OHDi13jQ+M9mo+8RwNwancef88YaNgQwLsJNjsnsOzGTg5e60jvKg8z0KJ7gpICcK7Zntv7v+f6D11xH9G2rMMRJSjziz7nH5ya5/peTp99MBA3wzPc+mUHk1dPYcOUP3kl1200LKg/bCqvt8xVa5YxIJdYOux5/A6b0GyUH6/43BubU9AYk9JpV25mOLp75TP+JIGzP/6bHpMPYNpnKQfXDqZGQV8wli545JtJ59iroztlufCsmaM7Xvcanc/iE9W7jaGD/SA2f76ZS/Vh6aE7OD/7H1oUNKzG0oX63cbwbccuNO3qw2urZrJ98m8MzJJHlMb5qt55KC2sd7JnyV4uDxxI0rpVBKZ48va/vUp4oGb+Hqxd+daa5/vL2zuv7KM8s6ChY1UqRFwkoiwmTRTRY5MUhN25DlQusEzF5xZyM7M3DuUAACAASURBVLwZMWe/5FRsW+rldTnArTENKsLmM0eJNQzELeNdZ7hzlsuP6glNjiEmDihkPF1BNFPzku0ZuX6QVesOQ/P+DGpZ8HnJCADzBwgg84u+KBuZeTPy0+eZ0/tnPp93hAGfNctxCM3x6DWE1wcWUOvVo/x64g523Zby88IhVMv8w2Uqbv6saEmBiSk5x+UVq12FMhC6/EXavLIFen7P3pWFJAQ5qLspRv46NHA3Z9fHo8LtaV7vVolNv/7Al1/C/ngPRr7Rkmzr48WF8Me6HVyp2pn+3ercf22YedLpKRf4J30GxsAsm5TK+cq4hLDz4DpORLQk7LdgUjzHFfPSQUHiCPljHTuuVKVz/27UyfJmKJ3XoRHvr/zoymJ545pUNjPHcCeUq7ehhg1AJNfu3CTFpDFVC7gRYfCtqySZOOBUDu7b9HiMKTi9iBtnQ6FiRwq+QaQN3q4NQYVx92R+ZarQr4cHnP2K58euJSAkhJCADXzw7y8IMmKmjLGSY2J48CnOtnjUsEeL2MnqU/cnEhnO7WRfBNjXaZp7DnjEPnaeu38x1BC8lt8vgWOdJuSef2IgdGU/Kuv12DabxIE85i26NWlGFS2Gg+tOZFlO1UDo9qmM8Z3AgsB7izS50aRZFbSYY2y9mKUiQzBrf78ElXxo73DvSSua1rGHK/+w9UyWWDPalT2AprSvYUrsyT+5lDW+iK2MquuM179/Id/L6YBLu/EM8kjh9PezMq8vp1fbnhqmsZz88xLZqx1FXWcv/v1L9loNcVEkZr3GHH2Fo6H5LGEWe5I/swYbcYJ1B2PQnBtR/96ElAdsV/4MhK58kdYv/wadv2bbT8PxssyrnC3V3Wzg0s98uz/r+TrHpm/3EGtfh6aZLy5zPFwsiNnzA3+HZjkI0Yf4Zm0oWqUG1Df+zq35xFzw67DoXGg3fhAeSfuYN28fSZ6DGNMkZ1Ydw/qpvoz+77ecyrpPQyiHj98E62rUvvchX2rnCzIvIdz4i2Urf2LZkSQ8+z3IpQMbWjVwgku/szbrvMzoU3z739GM/eRXYu899wDtSo6NzmcKccHvrw/GTSi8CXrPwsuUOAvqODfE7u4hfvvbnw2HNrN++5f8EZOAo0MLamaduKMSuR58hKOBf7DhzymsvX4VM6vmNC7ZrKpUPBY9BcE7ZnKX5tj0+m/O2WrFYEvLj1fy/u7OzFz4Aj4LAc2KJkNfos2578h2a4mMX8Pp96C6zcGLyZB8kc3L5nLTBsACz8796ZY15bb1oIa9xuaVoxhdaSTtq5jlXc7IWJv4jsFn4URmd/Hh2DBfnnUMYLH/agLu1mPCh13yyOzPML1zK/55eRhNMqYknkpxYfDop3DNVfYyG7/cTGRqKhxdzc83ZtAqZ9+mx3Am95nL0NX9aHZ5EK9kTkkMINZlMO/1qp6l6GT6zB3KDz18COn/cuaUxE2ndDScMp6WmT/T3Hh6bC9cNi/n7dat2O+bMSVxyT95rOPuyZD3e/P5oG/p7nOGYb4D8Lp9IH2aX7gNL81umUe7sh7CJviO8WHhxJ/5YFEwXSZlTMXyHML7vT9n0Lfd8TkzDN8BXtw+sJYl6/YSbvMSs1tm1Or6FKO7u7Bx+du0brUf32HtsLm4lcXLTuHg5Uyen5gVbTgwvCnPdHudZ+9NSbxhjs/4l7J0uz9gu/JzYS6Dhv9MtGNbXu2uY+/KuezN8mcLz3u/im3xeWcyz6wcw+wuPhzIdr7uUm/Ch3TJfHF5MNBvJP97+huGNfNh9cvD6GST0a5wJ/osHZ3lC+w6B1et43DGjdtuH7xIMslc3LyMuTdtACea9x9E9s4lI16HxZA+4HABk49D42HDc3/J2vrw5n9bs3TCbLr4HKD/ywNoZXORrYuXsOlUIvUmzKRv5su7lM5XhvRLCCP5xW8uJHnim+vSQcav/HMZiejVI+lf7Ed+Yu7cjD07Naf/oJZUxpUOE0dRb4sfH7ZuyP7hIzOnJP4VpsPnM1/u50fFaVcFalezJnHvNEb4xvFCfeuM3WfpNSzg/dV51LzCD4hWUkteFY2zzxgGG9JYfekfdpzbCTpbnCsO56X2bXDIWtBwkA3HDqb/WzPH1roHfdv2o0ZZBF1U5X9KorFTDTOs66f2TWyuAnYVVjBeXQverX79dbcKuhSlkjOms2WbZpMx7Yd8H3lPtYo6/Jnq6GqhTPIplz4lMeuUL6UKmvIYdWy+GljXQZlrKDRz5VCri5q0LUxln6x0b5riePXrmuGqroO50tCUuUNdNXD+sSzTCbOKVQGfd1AOJpqyqjtWbbuWZyGl4i+ozePbKFcLEwUozdxB1eoySW0Lyz1dKv7MKjW6uauyMEFxb//+B9W1XEWj1LH5A+/H6dxaTdi2TY3PNdVSKaXi1YXN41Wbe8c0v2OQ1zlU6v5UMPfRKusMMaPbFXVMzR9YVzmYa/fbNP+Y2p9rOt79czh/w/3XgImFq2ozYZvKfbiMbJex02GVKvQ1m/PYRB37Tg036nwlq7Btk1SXWhmvQ0yUhWsbNX7zBZV9Bl/G6zDfGHK+7pUy5nWY93tG5X/OlVJKXVObBlZSmPqoz87md8Ci1MnVY1Wbqjb321Wpfj7HoBTOV6aLalEn6/TXodcElXsmYkadBX0eZXvfJKtrB/3vf25goixcm6vh3+X1WWBsu+5LvrBGDc+sO/2Ra3pkPu+voKi7Rh2Rhz8lsfwpzpRE7fz58yp98aKFzJ49u/SzkAe1ewKHNi1F1yyYZgNsgD0cnzaQRJPe2Hg1KXz7m8u5HZaMRe9DNG5XhP2GL6NHw6Ec7rSeEz8//0BZv3hSXWZ1n4YM2tOWVSezD1ATZeDyavo0HMTfPosI/PMVco0zFY+0sSsG0KvhQHo1GFh44SfU5sDVbD65mm9eWptvmcDAQGrU8sLKwhwoj5cPXDtgar2CpGPdOVFpK406ZDx/exO3j24yrg7rYdgUmBDk6IrjDse+/5Q/Yu3p9VILSQiEeAxc+mM+f8fkXptAlA/W5rbcTiovKxuWjTRV9IG+5S8pqNmLJv2+IWD9WBL+6M4JZqY/X/FN3J7pYUQFltj61CpkoH4cx79+G99N919wJhaudJi2lu/yXt1FCFGeGIJZ+vVu7lR6Ps+1CcSjz92xFlF3ysNyQGUnLOo89ar4FGmb8pcUANR9lib9yEgMXkOnA6wdcfNpWEI7cGPgb7eQTilRsuR19cgw82ZSgIFJZR2HKDY3Bw+2n/6FqPhInKweaHrLYynREE9Y9HnqVTHisnoW5XdKYt1nadLvGypYxZOWVpkKtbuUdURCCCEekrpVmuBsU4Vfjy8n0fCoLiJTNhIN8aw89C0WZlY8VatzkbYtnz0F99R9liZ1ny3rKIQQQjxkXs716VL3OZYe8OdOchxDW/lib+lU1mGVuURDPMsPzedY2D661H0WL+f6Rdq+fCcFQgghnlita3YiOSWJX44vY9qmN/CqXB9XO3f0usJvAf64SSONazFhnL8RTIIhni51n+XZxkOKXI8kBUIIIcqtDrV70qBqM7YEruHyrVBOXQ0gTT3sW3Q+Glzt3KlXpQntvXpQo2LtYtUhSYEQQohyzcnKmaGtfMs6jMdC+R1oKIQQQogSJUmBEEIIIQBJCoQQQgiRQZICIYQQQgCSFAghhBAigyQFQgghhAByTEmMjIwsqziEEEIIUcYkKRBCCCEEkCMpaNCgQVnFIYQQQoiHLDAwMNv/ZUyBEEIIIQBJCoQQQgiRQZICIYQQQgCSFAghhBAigyQFQgghhAAkKRBCCCFEBn3hRYQQQohHV6Ihnp0hm7gSc5FL0eeJSYgq65AeOtsK9rg71cLNoQbtanXF3tKpWPVIUiCEEKLcOhsZxOJ9XxOTEIWrnTveLo1wtKxU1mE9dDGJ0YRFn+PU1QD+PrOF/j7DaV2zU5HrkaRACCFEuXQ2Mog5O6biaufOmB7v4+bgUdYhlbmo+Eh+3PsVSw/4k5ySRIfaPYu0vSQFRvj7j1GsiYopwhYm2FV8lfe6dsau1KISQognV6IhnsX7vsbVzp3x3T7FXF+hrEN6JDhZOfNWl2n8385P+OX4MhpUbYaTlbPR20tSYCwTDxpVboBNoQXDCLp6gpib3zJrG5IYCCFEKdgZsomYhCjG9HhfEoIcdJoJw1qPY9qmN9gatJ7BLccYva0kBcbSVaZOh+F0KLTgUj5dcYIUMzviJDEQQohScTHqLPWq+Mglg3zYWzpRq1LdIg+61F2+XUoRPeFsnd+kh/29xGAHsWUdkBBCPEauxoZha2Ff1mE80twcPAiOOFGkbXSzZvyPxTtDSVGlFNUTqx69e0piIIQQpSEmIQpHqydvlkFR6E1MSVOpRdpGR9odTm5fxuEToaUU1pMp9e4RjgYnUqXGQNpYVyDW2MTAEM5W3/pY6zQ0zYE+qy/nKnJ5dR8cNA0tv4dDH7JtFh3AohEtqGqpR9M0dBUcqTdoLociDA/YymgC/HtSWZ++X6+JIfmXWzSCFlUt0Wsamq4CjvWeZ9bf4TxQBMVsV/SeMVTXmVFn/H6ic/3VQPj2yXT1dKSCTkPT9FhWbcs7W0JJeJBYM+L171k5/RhoXuR7uIpU5SJGtKiKpV5D03RUcKzH87P+JjzXIShKu4p4vkqhXUI8GhQ3j8zhw1UDGLtiELP25lEidhfLfh3FmyvSy7y9fgprTsXdL5C0mOkrBjA28/ECb60dz/dHrz+8ZhSB7r1uNXHUgUrO/fEoiu/69Zl8f2wm3x+bz5478UAqsTdXsbKAnhxD+FZ8ferSc94lbFydMC1wD5XoMskff/+sj4941l0PZnY4mmcUizvK1I6tGbX4NPrWo/Hz9+O1NjaErfGlfbcZHI0rcCf5iw7Av2ddmo/dxl1XV6zzLRjH0akdaT1qMaf1rRnt54/fuO5UifiVCZ1aMuL3iOLtv7jtit7DB4O/JbzaK3w/qTWOOf+8dzwde8xgZ3QVuo/zY/bkITTVH+fL3i15cXlosZOY6AB/etZtzthtd3F1zf9oFUXc0al0bD2Kxaf1tB7th7/fOLpXieDXCZ1oOeJ3sh5Z49tVtPNVGu0S4tGQwsndk/E7s5t4s8pY5VUk9ThL/vya/YmWeLkOp2/NblRRp/kn8Cs2x2ctaIJrlfd5xWcig2r2wMPkGkfPfMHqqw+nJUVy/vx5FbR/o+r3TAcl8vbX1pHKd80s9ZdRpa+qU6cPqyM5HzveUr7LR6q5x/LbLkRNqaspzaqeGv3LBXV+VW9lj73qvSo8V8nwVb2VPZ5qQnD255NPT1eNTTXlMfaAis1W1lo9Pe+sSs4sGaX2vV1bmeKsBm+LNKpV2V1R6/s6KUycVY85B9W1wAnKE5RnzoCUUipymxrsjDJtPF2dvh+ASr6wVPWwR1m0m6dCixFB8dqV8Xetouq7OvdxVSpUzWtnobDvoZZeyBJs1G412l1TmtcEFZicx2aFubJe9XVCmTj3UHMOXlOBEzwVeZy/oolU2wY7K0wbq+nZD6xa2sNeYdFOzcs8sEVoV1HOV6m0Swjj+C7vrzadXFV6O0j8UU1bPkhN/v1XFZz4o5q2fKDy25O9iCHoKzVp+RD1xb7YzOeST3ypPlg+VH25P2s92bdNCZ2npuZRX0nbdHKV8l3ev8AyJ0+eVHcSkjL/n37vAxtP3Bs1LuP05HFRhbrezWia82Fa+EQP89qvsvHkIeb/qwZmBZWr2p6efbrRONssnDgC/L/jBI0Y5dsE24xnE89FYVqpAd07e2ap05GmI/pQjQSuhRWnUzyNNKeuzNl3nI3jWuBSUNOSo4k1gEvrLrhmaZRZjeY0rghJUdeK9eu7OO2KOzqHV/3PYNX9K758zi2vYLkYkYh92xF0qJElWMcWjB1QA3UjkKDIYgSbloZT1znsO76RcS1cjJzyc5mNI72w1ulx7PYt53IdpGSi0w8sXbIfWJqnH1iuGe6XNbpdRTlfxWqXEOWEZkdttw94t3sf6uRTJM1gjaNNI2o42WY+Z+bliAUG7hZwKV9na4YJOnRayYZcErK8j+XeSGWrNh9smG9UyUptJ7D81xxPRuzmi1UX0debTv+a9z/NvT7YR+QHueuIPBVCNOY0cij4IkXe3Oj/3Qoji7ain481m9fN4LcJaxmc8aUUvf9bfr5kivfbz+JSjAiK3C5DMPP+48dJ06eZ938vUKOgrCsXM0xNH+D94dYfYw9XpqgLbNhyjngF8Yd+4Wjkq3hmy2PcaNXPB+vN65jx2wTWDs5IJKP38+3PlzD1fptnCz2webSrKOerOO0Sorww78vA9oUUaTKSt5tkfy7pRDixWOJhnvc2aZH72Xh4H5EmnnSuXjKhlqT7nwh3ZW5ieXZp8+dsvmFNu3FD8S7sC88QzDK/7cTYt+alFq6lHFl1hi5ey2vOf/Jyw/o8N9GPDwf74NluDjE9v2PjlGbYFl6JcfJtl4Fz349m+lFoOnkBr3iaASFM9NLQvCaS57i4uKNMbVQBfeUXWJd7rGfpc2rA2Dc64l6pCvX7/4c2eXRsVB+6mLWvOfPnyw2p/9xE/D4cjI9nO+bE9OS7jVNolteBLbRdD/F8CfG4ST3OumtBJJk1oUmzbH8g7FL6QMNxOz5nx+0KNPYaS9/S/vgtBj2kEB2wgRPHzpR1LKK4DMEs/Xo3dyo9zzu9Cks9ozkwpT9Tj5ry9Lyv6JtXL3oJM6vWnndmDeevF/z5ZdYkNpGKaY0BzJjcjeqWJbWX/NtlOPc9I9/9h7sNp7DwNe8CL81kSo4hLMpAakIUsUWb0VNCHGk2YSeXJhRQxKwa7d+ZxfC/XsD/l1lM2gSppjUYMGMy3fI7sEa06+GcLyEeM+oG27d/w/4EWxrUHUHbbH80wbXKe/RwAZV8mSOhqwg48wWrHWcx8BHrLdBt+Hwmn64JJL7wsuIRFRfgz3cnUvAYNJ52BXYZR3Pk0950n3Uam38t4MdXPI37gnyw6Dj+v2749F1D5YlbCLmZQNylPfg1OcRb7Tsz5UBJzHopqF03+GfqVP5Jro3vt2/Q1NifuZWeYcHJi4Se/Y1XHrE37T1xx/9HN5++rKk8kS0hN0mIu8QevyYceqs9naccyGO6JUa062GcLyEeNymc2OXHpuhEKlZ+iZea5P6g0Zuljy9r1vg5/tNhADW0UE6e21cGsRZM92dkCqDHqmKNso5FFEscwT/9xiU8GTSmSQFduwmc/fHf9Jh8ANM+Szm4dnARr6sX06W1vPXJQVzHb2bDlB7UdjTDslobxq3Yzletwpj14lQOFndaJFB4uzIG5Ll2pLfDDUJCQjIeV7h1t+CazRzd8XB5VH8aX2LtW59w0HU8mzdMoUdtR8wsq9Fm3Aq2f9WKsFkvMjWfA1tgu0r9fAnxuFHcPPwFK66EY1VpFG8907HQS2yafRtczBWxiWVxbbJgOlPnpowc/w6NauacsS3KhXsDDBsNY7hXft/yBkKXv0ibV7ZAz+/Zu/IhJQTA5QPrOXbHippNK2d/o5h50ukpF9SlHWwq5lIFRWrXpW/p7O2Nd+ajM99eMn4/d++mFTfI0nH5AOuP3cGqZlMqZz+weHZ6Chd1iR2FHtjc7Srd8yXE4yfl3BLmnz+MweZ5/t2l8IQAAMNBIpM1rM2Nv3vhw6Kb9tZz1HWUyUTlVeEDDA2ErnyR1i//Bp2/ZttPw/Eq7Mdv9AEm+Vijr+DGgJXFX7AHwNajBvZaLCf/vJS9OzshkLVbw8GuJvVzxWMgdGU/Kuv12DabRN491sa2y5bG477MsciTP/7+k+iSa4VUczxcLIjZ8wN/h2ZpdfQhvlkbilapAfXzeA9HH5iEj7WeCm4DWBn6oKtEZtbKEb9OVHd2pcGojeT6PWHrQQ17jdiTf3Ip+4ElcO1WwrGjZuaBNb5dxTtfQjyG7u5n098/suLvH1mxP5REFLdjM/6/5y9CAQw7WHj8N66bNOLpGl7EBx/haMbjxLXsXWophiMcDT7MrgNLmfv7Gi6kVaJW5cJvsfew6S1NIKmQblTxMFzn4Kp1HM64odXtgxdJJpmLm5cx96YN4ETz/oNoWTnLJsYMMLwwl0HDfybasS2vdtexd+Vcsq7UaeHZmf7d6mTLbqMC5/NDQDypxLNj6SEiX6xB9vGIcYT8sY4d5xLT/3v1SPryzUd+Yu5cV8ACz8796VbHFtsmbzOjz0qGLuiA567evDysOx63D7B2yTr2hkG9CR/SJddgx8ts/HIzkampcHQ1P9+YQaucHVlGt8uWOt1GUKdbzn2EEDZ7BtuzPefBQL+R/O/pbxjWzIfVLw+jk01QeqzhTvRZOprcnTFRBM7/gYD4VIjfwdJDkbxYI0eD4kL4Y90O7h+u9MWuj/w0l/TD5Unn/t2ok/0k8M2cvwi7AaxbyN6PnmNg1mptm/D2jD6sHLqADp676P3yMLp73ObA2iWsSz+wfJh5YI1vV5HOV3HaJUR5kRrCsau/ZVsZlJjf2BMDmll73OlIjbTLRBkUiuNsO3E8S0ENu0rjaFTl3pzGVK5em8n319L/p9NXwbu6LyMbPZymFMn58+dVUFCQevPNN0t3aaVyrGgrGubjn3cLWdEwWE3wREF+j9wrxcUeGKs8NFS10ftVbN6VKhWcvtpgfvXa916lcq3tF75BveJppTQTB9V1QdYVAzMLqFW97QuINcdKjPEX1OaJXVQtB3OlgUIzVzZVm6vhCw6qa3muEBirAj7voBxMNGVVd6zadq2E2pW9gvTj7TlBZT+sySps2yTVpZaDMtdQYKIsXNuo8ZsvqPh8agrf8IrytNKUiUNXteBsHg0KX6V62xdwbu17q9wLV4arDa94KivNRDl0XaDyqlapeHVh88QssWrK3Kaqaj58gTqY68AWoV3Gnq9itUuIklHqKxo+BoqzoqF2/vx5lZSUxMKFC5k9e3bpZiDl1N9/jGJNXB1eGPAuxe7s2fUeYy9HU7/ud7zWpPDiQggh8jd2xQB6NRxIrwYDyzqUR9bmwNVsPrmab15am2+ZwMBAatTywsoifbUlWcZQCCFEuWNtbsvtpJiyDuORlqaKPkBakgIhhBDljrtjLaLu3CjrMB5pYVHnqVfFp0jbyLQDY6VdJ+TvHyn2nS7jZXK3EEKUFDcHD7af/oWo+EicrB69qX1lLdEQT1j0eepVKdr1akkKjJV6kRNXLz5gJfYlEooQQjzp6lZpwonLh/j1+HIGNf8PFmZWZR3SIyPREM/KQ99iYWbFU7U6F2lbSQqM0KHbd8UfYCiEEKLEeTnXp0vd51h6wJ87yXEMbeWLvaVTWYdV5hIN8Sw/NJ9jYfvoUvdZvJzrF2l7SQqEEEKUS61rdiI5JYlfji9j2qY38KpcH1c7d/S64twSvnxLI41rMWGcvxFMgiGeLnWf5dnGQ4pcjyQFQgghyq0OtXvSoGoztgSu4fKtUE5dDSBNlcmtTcucq5079ao0ob1XD2pUrF2sOiQpEEIIUa45WTkztJVvWYfxWJApiUIIIYQAJCkQQgghRAZJCoQQQggBSFIghBBCiAySFAghhBACkKRACCGEEBmyTUmMjIwsqziEEEIIUcYkKRBCCCEEkCMpaNCgQVnFIYQQQoiHLDAwMNv/ZUyBEEIIIQBJCoQQQgiRQZICIYQQQgCSFAghhBAigyQFQgghhAAkKRBCCCFEBn3hRYQQQohHV6Ihnp0hm7gSc5FL0eeJSYgq65AeOtsK9rg71cLNoQbtanXF3tKpWPVIUiCEEKLcOhsZxOJ9XxOTEIWrnTveLo1wtKxU1mE9dDGJ0YRFn+PU1QD+PrOF/j7DaV2zU5HrkaRACCFEuXQ2Mog5O6biaufOmB7v4+bgUdYhlbmo+Eh+3PsVSw/4k5ySRIfaPYu0vSQFRvj7j1GsiYopwhYm2FV8lfe6dsau1KISQognV6IhnsX7vsbVzp3x3T7FXF+hrEN6JDhZOfNWl2n8385P+OX4MhpUbYaTlbPR20tSYCwTDxpVboBNoQXDCLp6gpib3zJrG5IYCCFEKdgZsomYhCjG9HhfEoIcdJoJw1qPY9qmN9gatJ7BLccYva0kBcbSVaZOh+F0KLTgUj5dcYIUMzviJDEQQohScTHqLPWq+Mglg3zYWzpRq1LdIg+6lCmJpcTW+U162N9LDHYQW9YBCSHEY+RqbBi2FvZlHcYjzc3Bg+CIE0XaRpKCUlOP3j0lMRBCiNIQkxCFo9WTN8ugKPQmpqSp1CJtI0lBKUm9e4SjwYlUqTGQNtYViDU2MTCEs9W3PtY6DU1zoM/qy/mW2z65K56OFdBpGprekqotRrAoIDp32egAFo1oQVVLPZqmoavgSL1BczkUYXjAVkYT4N+TynoNTdPwmhhSWOMIXdYTB82GDvPPkefe82pX2/+yJjCPdhnp8uo+OGjpMeZ8OPRZTT5HmOj946ljpqP6mD0Uf+9ZKwzAv2dl9JqGpnlR6OEyqspFjGhRFUu9hqbpqOBYj+dn/U14roNrIHz7ZLp6OlJBp6FpeiyrtuWdLaEk5K6VgEUjaFHVMj1WXQUc6z3PrL/D8z5npdAuIR4NiptH5vDhqgGMXTGIWXvzKBG7i2W/juLNFell3l4/hTWn4u4XSFrM9BUDGJv5eIG31o7n+6PXH14zikDGFJSS69dn8n2Ocx57cxUrT3RmdKO8tzGEb+WtHv2ZdxoquzphuJJfhneZNYOaMmjDLezr9WbcxE7YBK1lybrFjGp9kLN/7+KzVo7pReOOMrVjGz4J1OPecTR+A6pzaa0/i9f40v70dfbu/pimtsVoYHQA/kO688bvUdhWc8U6/Grh20T8yeR3tpLY8ENmD/bErKB2NRnIpCkt4dhalqzzZ2DzvXwWsI8J3rm3Mo4F9YdN5fWW2YeKWng2Js/mG4JZ6OvPWbvnWDW5LY7F3Os90QH+DOn+Br9H2VLNPEIcYgAAIABJREFU1RpjDldh4o5OpWObTwjUu9NxtB8Dql9l6+Il/DqhE/uPb+bYsh643Nv/3vF07PENl2zr0XvcRDrZBLF2yTq+7N2SM0sPsnZwjYzzEcfRqR1p80kgeveOjPYbQPWrW1m85FcmdNrP8c3HWNbDJTOG0miXEI+GFE7unsqS8DOkVqiMVdLN3EVSj7Pkz685fLcK3q59qVPhOscu/84/gV9hVX0KvazuFTTBtcp79HBRxMce5+jVHRw98wXWLrMY6Pow22SE8+fPq6CgIPXmm28qkbe/to5Uvmtmqb+MKn1VnTp9WB3J+djxlvJdPlLNPZbfdiFqSl1NaVb11OhfLqjzq3ore+xV71XhuUrGHhirPDRNuY/eraKyPB+1f4KqZ46y7rRIXcx4LnxVb2WPtXp63lmVfL+k2vd2bWWKsxq8LdKoVmV3Ra3v66QwcVY95hxU1wInKE9QnhOCC9gmVh2eUFeZau5q9O6ovIuc/Uz5mKIqDdykrmVt1763VW1TVLXR+1VsMaINL+BYFrxNzuNWTFfWq75OKBPnHmrOwWsqcIKnAk9V4OEqVKTaNthZYdpYTT+dJcLkC2ppD3uFRTs1L/Tek6FqXjsLhX0PtfRClrJRu9Vod01pXhNU4L2nI7epwc4o08bTVfZql6oe9iiLdvNUZrWl0i4hjOO7vL/adHJV6e0g8Uc1bfkgNfn3X1Vw4o9q2vKBym9P9iKGoK/UpOVD1Bf77n8yJZ/4Un2wfKj6cn/WerJvmxI6T03No76StunkKuW7vH+BZU6ePKnuJCRl/l8uH5S4KtT1bkbTnA/TwjtlzGu/ysaTh5j/rxp5/Iq+L2LTDi6pGgwY2yLbL1jHVr580NGOO0E7OHsj/bnEc1GYVmpA985Zf5k70nREH6qRwLWw3J3HhUsjzakrc/YdZ+O4FrgY0d9kCJ7Hq18F4/TSAj5qm8/v7tRb3L5rQZ1O9XDJ8rSjWyu8rCDh+lXuFCPa7BKIuHCBiIKaHfE7E97YzP+zd99xVVf/A8dfFy57gyIiMhQUcYE7zZWoGGampKWWs7Qws6wwNa3UCn+V2jfcDc0tmpporsycYAIKKriQoSIKAcq6Kuf3B+uyhyCi5/l43MdDP5zP+bzP+dxx7lk3o90slo8rqUejkrKzsei7mBNndjClo1UFu+fi2DHeCUMNJeb9VnC5WL99FkkpKrDqgru1WoTaDnRoWw8yE7mpKkh7LT4D025j6emglta8I5O9HBC3wzmXkJc0iZxs3SmcbQdysr1ZMIRQpXJJUh2hMKGZzQw+7j+Q5qUkyVYZYm7UBgeLgv5GbSdz9FBxv4yhfA1jbTTRQENRvSFXB9koeGI0Y8b2ZbzkoF9uSpF1H4EGWlpFP64UaCkV8DCdu/dzjjjNOEFCwglmOBVOmXA+kiR0MDHTqkKsNgxdtYEpHa0q+IEZx/aPviFYrz/fznuh0Ad+IQ2H4GGfyan/LSMwfxBfRdThXziWbEqX1ztS9Z42IxSHP8LJ0JCGTZvS0FCXBj19OV1sskAqpxd9yJZEJ7z93qLKoxXqbIayasMUOlpVIrPEq2zfc5k08ZD/Tu0kOKFoAhs6D3HDMG4r83dFFXxQJ51kxe/RaDkPYlCpFZ1HGy2tIm8BNp0Z4mZI3Nb57IoqaIkknVzB79FaOA8aVHD/qlIuSaordAYzrHubkocX85K4jufDgZ/witr7a+bZWFLQx0Cn5HOyE06y/eQJEjQdcbSr1oirhWwU1EE69lboEc+JQ0Um68WfZWtQMlq2XWhd1qenKoJ1vgdINu3C6x1rfkAr/k8f3t+dhrXDf3zRVh+FQoFSvxHdph8oPCHOuBNf/P4/et/5lm6OnXh7wQK8X3Ci9egj2H/yB6sG2zxCFHHsWX0K58nf4+e3EB9PK1L++ZSB7/1JvFqqvB4NA0cz9r9sjUb+xMzllDSHs8ZYtGLy+72wrd+QlkPfomsJRbcbtRr/dyz5683WtHx5Or6fjcDN8XkWJw9g1Y7ZtC/p3Sw1mDltdFE2eJWtJc6wtGPUan/esfyLN1u35OXpvnw2wg3H5xeTPGAVO2a3L/NNUpKeaQ/PsPXmOTK1XXFtX+gPxETnTDSccvBbDt7Vpa3TZAY/afMJkI2COsl+4Hu8YHqPf6a68/oPfxMeGUlk6HY+GjiCLbcNeX7yaziWenYSgbOHMidYix5fL+KRPmcrQhXB6plbiUcb/caDWPjPOcKO/sY7rTII9B2I5/xg1ObpYu4ylC9n9sPy7ilWzZjB0kM30HadwLxJ7ajqF1INXTPq1W+Mx8K9bP1mKu++O5Vvtu5jwXO6xO9dzon8yXHx/DV3ESFZGigMO/LJtn+5ELKLef0tiNnyDn3Hbyl1pUL1M6e9zyGiE24QvuplSrxN2o3p/tECxjTP5vLOBcz8eiOhGXa88vks+tmV0uOUlUxMooqH6YmklNK9qd24Ox8tGEPz7MvsXDCTrzeGkmH3Cp/P6kdp2UrSM0/c5sCBHzmZbkyrpmPpVuiPmlg3/JRxbp8y1uUN2ugkEnrxOzZH11KsZZCNgrrIZjBLN76LizKGbe/3prWzMy1e+IQ9N9PBdiRzB5fWJ5XE6a886b/gAkYvLefX6hgvL0/MDjaFqbB9ey+BO2bg6dqcVt1G8b+jx/mibTZhy74j6HZe4jh2TOxCjxnR9F8ZRHRqOncitzGOX3m502usj6raEkrrQb9xKSGaXW+plVe7Gf17NILUaC7mzS+4Hc5vB+Ix6PEjQUf/x6hurWju6smMHUfY/Go97gR8zbrLj1Yd1Sn1zP/Rz20wWxpMZ0/kHdJToznm68qpD7rTZ3Zgycso67/A8rBrRF3axbgSnyapnPm/frgN3kKD6XuIvJNOavQxfF1P8UH3PswOfJzdJZJUVzzg7BFfApIyqNfgdV53Ld6fptTOmV/Wvu3LvNXTCwdFFGGXT9RCrGWTjYI6SZvG/f04l3CDKyF/8efRcwT/X1Nu3LTg9eWfU/I8vnQu/foGHrMC0Rq4liD/ETg8hqHguOAjRN03ofULdoWX9Wk74+VhBwlBHMj9nEkN8mXq6hT6/LyXX8Z0pLG+NubNXuLbfQFM0N/FxPFrqfaG9f27/Jf3jTnpAEEJYPVcbxwL1Y0VbYZ2wvR+FEeCH19fQdmi8f/gS4Ksp7F7+2w8mpmjrd+YrlM2cGBRZ2IWvMacoNQSz9Q2t8XeqpSv/NH+fPBlENbTdrN9tgfNzLXRb9yVKRsOsKhzDAtem0Mp2UrSM0pw59/v2HA9FoP6E/jghV7lDrEpTLtipSNIyXhS3k8KyEZBXaZvRRPX3vS3O8cX0/fyoPscvnihpNllKqLWv0bXcXtgwM8c3/h4GgQAGlpaaCJ4cF8Ui+n+/WzQMsJMM+fIzW1/ck3Uo1XbIp3l5na80NqEe2f/ILjS6+BVJMVcIvJSDEmqwseLXh+FDloKyL5/v9gmPeL+AwTamJiXMnvocYsLZFvIPQyatKNBoXcgbRx7P4eViOZgQHxpZ+fKrYNC2W4j5J4BTdo1KPzGpu1I7+esENEHKTdbSXqGPLi8hmVX/kVl9ApvuJffIABAFURClgJDnYr/euHjIhsFdV4Sx+Z9xI4UZ7y/H1HkGy6AiqiNr9HlzV3Q5wf2/zYGp/LGhZMCmelmiFLXBq+NUSXvYldB1u1eoo1hCsdWBBRaVqeK8mfGmigUjbrRO/d1odusMYYlTKBUxQaz7XQKCvPmNKtXLFgCZ7phqNTFxmsjJY0w3FziSYuWHiwIU/uKq7rKjoOxYNWJXnmvSytP+tgpiPL/kVPqveRJgfh99Tcphi3p41R8W9WkwJm4GSrRtfFiYxWHOIpL4rRvb+wsrWk1YUfxuQzG9jiYKkgJ+4voQj366YT77yUWE5q0zLvROthb6ZF87BcOq8eXdIof/aNQ1G9FS8u8bB0wVaQQ9ld04eGH9HD898aCSRNaynkF0rPg/kkCDv/KhsO/suFkFBkI7qbk/v/Y30QBqA6y8swubmm2oYeDE2kRpwnOfZy9WbhL7YHqNMER/3IkcC1L/tzC1ez6NG1Q/k/sPW5yafET4xZBm7byb+4PWt0NukYWWVzbvY4ld4wACzoMHU6nBoXPSj29gLd+jqXBq7uZWtJ086tLGD7md5LMu/F2fw2Ob1yC+k6deo59GNqveaHWbWL4Mn4JTeMhaRxce4qE1xyKTHRLJXLfVg5ezsj5743TOds3n/6NJUusAT0c+wylX3NjsBvM197f0dP3XVyd1jL0TS9a3j3E6jUBnE+2YPASHzrlXtxu8Nd4f9cT33ddcVo7lDe9OmN0bW9+2pe+m4hT0UZPYjjLfgkl7SGkHVzLqYTXcCgUrDZOEz9n4E+jWNCzNUGjvfGyu8Gen34l4KIG7b6Zilte4Y1d+XD+QDaOWk5PxyN4vjk6f+e/4zHQeva3eBUbh08kfNkvhOYEwNpTCbzmUKSnIzWSfVsPUlBdOZtdn/5tCTnV5Uifof1oXvgm8OPiv4m5DWxdyfHPX2aYerYlxNrf/i6B/mvYejwGXHz4zD3vBHuG+Y7n/3r8yOj2bmxWL1esBQPXFtSrseuHzB+4kVHLe+J4xJM3R/fH/m5gfh24+HxGfrZVKZck1RUPIwm5savQ6iSSd3EsGRTa3bGlFw7ZcSSqBIIz7D97Ri2hApP6U2jTsHteZty4+TU/38z5n4ayIc523owvZXfbWiV3NCxf5XY0LMU/H5ezo2GE8HFEQGmPEnaKy7ogvmmnU3ynukLZ5uw2WFq+pp6bRLF9/mK3i3GOBkKhaSb6Li9pR79YscnTtIxYi+4emChCVo0RHaz1hCYIFDrCrKm7mLk/pljeWTeDxPIxHYS1nmZOXpp6or6Tu5i++6pIK7GAsWL7OEdhoNAUZn2Xi0ulVEPaxU1iYgdroaeJAIXQMWshhvkFiZvF0meJmP0zhXtTM6GjQICm0LPuIMasChGl7MMoYrePE44GCqFp1lcsLymA2E3C07SMe2vqKYpvtliRcqWJq7unq8WqEDpGjUSHMctFULGClVSurmJaSfWadlXsnu4umprpCEXu/TJq1EGMWV6kvqpULkmqHjW+o+FToCo7GiquXLkiMjMzWblyJQsXLnwMzZC65/C+CWxJbc6rXh9T5c6eI58wOS6Jli1W8Y5rdUYnSZL07Jm8wYsXWw/jxVbDajuUJ9bu8M3sDtvMj6/7l5omPDwch6ZOGOjlzJeScwokSZKkOsdQx5i7mcm1HcYTLVtkl5+oCNkokCRJkuocW/OmJN67XX7CZ1hM4hVcGrpV6hzllE/mkP3wIUkJT956ySdK9i0iD/9KlX8ZNk0u7pYkSaouNmb2HLiwk8S0BCwMnrylfbUtQ5VGTNIVXBpWbrxarj6oqIfXOHvj2iNmYlotoUiSJD3rWjR05WzcKf44s57hHd5CT9ugtkN6YmSo0th4agV62gY817RPpc5VfvPZx2RlZvLrb2tqKLy6r2e/VVWfYChJkiRVOyfLlri3eJm1gX7cy0plVGdvTPUtajusWpehSmP9qWWExJzAvcUgnCxbVup8pb6RIRpaSpRaVfkJXUmSJEmqHV2a9CbrQSY7z6xjbsD7ODVoibWJLUqNZ+/zLJtsbibHcOV2BOmqNNxbDGJQ25GVzkcOH0iSJEl1Vs9mA2jVqD17wrcQ918U52+Eki1K+QnQp5y1iS0uDV3p7uSBQ71mVcpDNgokSZKkOs3CwJJRnb1rO4ynglySKEmSJEkSIBsFkiRJkiTlko0CSZIkSZIA2SiQJEmSJCmXbBRIkiRJkgTIRoEkSZIkSbkKLUlMSEiorTgkSZIkSaplyi0bt3L/wX2irkbJRoEkSZIkPcOUR4LP5vxK4p0kWrVqVdvxSJIkSZL0mISHhxf6v9LCxJCHDx6Qlvzs7RUtSZIkSVIB5ZyZH5OZmcnKlStrOxZJkiRJkmqRXH0gSZIkSRIgGwWSJEmSJOWSjQJJkiRJkgDZKJAkSZIkKZdye0QmHva1HYYkSZIkVU2GKo1DkQFcT75GdNIVktMTazukx85Y1xRbi6bYmDnwfNO+mOpbVCkf5V8/L0SM/6Caw5MkSZKkmncp4RyrT/xAcnoi1ia2OFu1wVy/fm2H9dglZyQRk3SZ8zdCOXxxD0PdxtClSe9K56OETDLu1UCEkiRJklSDLiWcY/HBOVib2DLJ41NszGS3d2JaAr8eX8TaQD+yHmTSs9mASp2vLD/JE+aoD6cC1vKwKucqTNDusIN2Q5yqOypJkiTpMcpQpbH6xA9Ym9gyrd9X6Ch1azukJ4KFgSUfuM/lf4e+ZOeZdbRq1B4LA8sKn1/3GgVqFBajMLSzq2DqW2SGr0IV/Q8gGwWSJEl12aHIAJLTE5nk8alsEBShodBkdJcpzA14n73ntjGi06QKn1tnGwUKbRNE4u9k2qyn5WsdKP8pcYwzEau4/xhikyRJkmrWtcRLuDR0k0MGpTDVt6Bp/RaVnnRZZ5ckKtvuwNhKyf0zIzi38V8yazsgID3+Klfj02s7DEmSnnWqJGKuxJCkqu1Aas6NlBiM9UxrO4wnmo2ZPRHxZyt1Tp1tFIATLu8/OQ2D1FMf0tamKU3tu+Mb8RS/EiVJesJF88tLTbB3tKfl2D+Jr+1wakhyeiLmBs/eKoPKUGpqkS0qNwOvDjcK4ElqGOgaNaSergKFUrvsSr19DN8RL+G9IbrUJJHTnVAonJgeWZ0RRjLdSYHCaTrVmu1j9YhliNvMQDMFCoXaQ0MXY5tufLQnimemjycplJ/GdqSRvhKFQoGGrjkuw5dwKr54YzYp9CfGdmyEvlKBQqGBrrkLw5econhSFbEHZtHX0RxdDQUKhRL9RmXUqyqWvd4tMdRQoFCYMXBz3CMVKec1o0Cj2XTO5ccWx+aBZigUCswGbqZqV1ARf2qFWh0o0bdsxfDloSQ9UsQ1SQdra0M00EBTW1EL149mg/dLjPA9xu1auHrNyuB84Hd8vnk4723w4r2NY5h74E8uq41Ln9w3gckbvPIf7218g8/2bOFsRu1FXRl1vFEA+Q0DS7h/9luu1lIU2s4fc+JeNtn3TvCxs3bpCbOuc2TPLvadeRIGPJ5Nei1H842fH35+fiycOYSm6YF859mJkVse7YOpTkgNZk6vLkxYfQFll4n4+vnyTlcjYrZ4073ffIJTC5KqLq/g1V5vsfqCknYjZ7HQdwr9G8az1bs7fWYHFvpQTDo+jV4e8zmU1JD+U3xZOGsk7ZRn+N6zE6+tj0K9DaGK3Yu3WwsGLI3GyNqC6vrRdkPrxphc3cZvl3KvFnecNcfAzq7qXcypwfPp130iv10xpe9kX/x8J9PHLI4tk7rQ1zeCJ7NP0Ir+v8TxQDwg7pf+WD3262dyZt8u9hy5TlaNXUPUWM5lSQhZxvqoU2Tp96CP4zh617Pi3p1f+e3Icf5TT6jdicFunzKu9dv0rtcIVcpmNh49UjjNE+opaBQAOOFi1xqEnEYolU/H/kVGvvsu7777LlPnrifw9Go8TO4Q8PU6Ltd2cDUs7s/Z/BCmRY8loVz6y49P3v0Ev79COPBBM7LDlvFdUN53u1RCvp3HX+lOfHAghKOr5zL1k0XsCAnixx5anF8+lwP5bahrbPb5iatGHqw+HcKORZ8wde5qjobs5e3Giez6fDmX8j89LzK//wCWRtvx9o4wjn3fBYNqKts9XUc6NLnKtt8uoQLijq/hmHZb2jeqao6pXFjxC2HZbfnieE653v1kEX+EnWRu22yC/RYRklp+LlINEGm1cNEMIhPCSNHqyMCe3gzu+CJD3D+kn6k+Sf+d4qr6x49CjwbO7WnXqh9D3D+kr4kBqXdDq9hb9Xg9JY2CaqaK5cD0brndq0r0G/XGd8dyBpoV7YYs6J7Mf5gNpHhPaG63t0KBovFwApLhsq9zofOcShgreHDJn7EtjFHmdfG+sZ5Lhfpic69frDu9rG72B1zyH4uLuS4aed3Bj9oVmh7Fno+6FeqOduw7iwOxj9IdnUTo8uEFcTZ4jukHYnlQcgBE7fmIbo30UeYOCZi7DGfJqfgKfZPTdujBqM4m3I86QrD6vSuhXBXvZnek76wDFK6C3PtlNpDlO3zpnRuvUr8R3aYXTVuZcuU9Dz7i6Il59Gygi4ZCgdK4KZ6+JwrVbcblRLTqt6J/H0cK+rPMaTd2II1J52ZM3hMslei4u2D3Cm93MVerLEc83+6GSXIkwfnvy1lci8/AtNtYejqo9ZKZd2SylwPidjjnEgoO6zR7mx1hp1j2kgNl9KlVQRteG9mKmG2/cUkVz9mtQWi7D6BJhtoHSPxuhlsq0HadT9GpP/G7h2Op0MZ1fl4PQG4dGNjgZKgWqbY1XguW4/fFEAr3QVT3/cpNZ/QCPxcdbVSdY3ozjcLliJyOk0JR7vtKbgbEn1rCcBf14Z6OjP2ppPeCipRL/b3QGd/LkBwwnMZqsRQbwinl9RWVUvKrvJAHtdF8v8otVRbaug5YG+Uds6ShYT2UD29zPaG084zQ0dBAodCkNgZzKitnSaJmLUfxRFERsXAwA31DUNr24l1vL+yi/Vky6QvSi/WFGdN2yvf4vZgB3CVoyResvl5SnqYMmeeHbSJwN4glX6wmodtMPn/FOj+FRYeiXZzxrJs0Dase7/Pt2CR2+q3m77WjcDewI2RZN8ypGr0H+5g2TZP23t8w5u4hVq8JYPM7A1DahbDOowodjaoo1r/WiVF/3KVh15HMetUNglbjt3k+/TpFsTtkHXnZqqLWM6bvW+zKaEzXkbPwanmXQ6vXsNW7OxduHefoF+0wziv9n+8x4J3N3DZ15bVZo+lEEKsnTuK/JKBe4RDitoyk0/AdZDTuxURfL5zuHmW132a8u1/g1vGjfNHOmDKl3uRkZCqYN8clf4+POLaM7MTwHRk07jURXy8n7h5djd9mb7pfuMXxo1+Ql60qwpe+XaZzRt8Fz8nv09/+LoFbfmbT/H48f+dI8fuVFcQXk8JxHvI535qfw3/NVo77DmSwWSgnfJzzPygrXa7Ufbw/OhUTry/50S4af7/V7Jnej+EmIeyflNMIcJpxgoQZxasg4XwkSejQxqz8znyFlrKCb27aaGkV/d7RjBnbl1Xo7EpLuoxe11dx/no1vx3vRezfCtzXdUPzHbWvcFYdeauvJZs3rMIv9D3+1yn/GUfw6kPc1mrFtOF598CSlq3qowg4xi+Hoxg8Mq8RY0zzfmNpXuTy1X+/bOg8xA3DgFOsPRjNuHEFe7KoLv3GtstKXOYOpUneE8Z0CPP8bEkEuPE7n88/UHpVBc6mT09fLug2w3PKdAZY51x/9YQunL1Tleeh+nvhDX7/fD7HLEcz591O5H1+6jm2paAGSn99fdXMmpVzB5d9r7OTy/77EyOZ8/9u4HBKBub1XKlyp9XjNHn5SXHu3DkxdepUUScc+UQETbcW/24tcnzrEHFi+hBxrtQTj4rQL63Fie9XlXOBSDG7hUJQf5gIuFlwNPHoRGGrQJh6bhKxJZ4XKzZ5mgpMPcWmkhPkJtskPE0Rjj4RpSaJ8HEUYCh6LL0ksvIDOCE+bKYlsBwh9icUuaajjyicW4TwcaTI8ZxjCpMXxPJL+bmKrAvzRFsthMXgbeJ6GWGXKnK2aKFAWI87IhILchVX13oIUwxF75+uqSVtIRRYi3FHClKKrAtiXttSyqX3nFgcqRbrpaWih2HRcuXcL62288SFLFEsreWI/aIg25y6N+m1SARGRIiIiAgREXZILB5iJ3TQEa1nnxYphcqlJdrOuyDUIhCXlvYQhliKEQXBiugt74tBAyeK1Wr1KkSUWPq8XsnlUtiKiUfV6uBmgBhWH6FoMVtEVqVclcq3BFkXxDftdIo8d9WfW7Fi8+B6QtPATcw+nSJiN3kKUxxFwVM457ll6rlJxKacFrNb6whNSy/hH5v7XC7jNZGTl6nwLPNFU77860RdEPPaGogW7t1FY8sRYn+CWmy5aVMCJwt7BaLxxJMF9zu3rgx7/ySuqeWbdXWdeKmeQqBpJJq4vyuW7g0XN9NKiqCG7te1n0Rvw6LvO1niwry2QkvhJHzC1Z9zhSpEOFLa+8x1sW2wRbHXV957jMJ+sggseCFUolz5Fy9W58WU8fqaOGZKaWcVyDwkvNcPFQFhm8pPW23CxZadI8SHu7aKqxeWitkbhosv/z4vzh35WEzdNFPsiMtJdWLveOG9fqja41XxScBmcTb9MYaaKyBsk/BeP7TMNGFhYeJeemb+/zU+cH9WlnQoUVRksOR2DJcTBSbtBtFa7Yuzud0LtDapseBKYMVzvdW6eM1t6OxkAKoUkh5h9o6o35GejgVdodrOXnjYQVJkKFX5CYy40NPcFKa49bdX+zasjYP7Fyzz82Viq7xtpeIIPX0TYepGf3v17mhnvDzs4HYIR/Jn4aQRHJkMjXrQv5larI69ea5oZ0ZcKKdvCvTNDEmNiiQyMucR9bAZzhZwO6T45J6Uv6fS2dkZZ2dnnFv35v3f79D4zbXsmFnQU5FTLn3MDFOJiszLN4qHzZyx4DYhBcFi67WIHX8s403rJK7mp00gS6ld8v0yac0Ldmp1YNWGoZ1MEQlnOXej6uWqUL7FJBE4eyhzgrXo8fUiBtuUlEbF9et3eZj+H0nl9exmJROTqOJheiIpVdqL/BFkpZBEE4a+6sjVQ8e57z6WtllnCL9TOJmxqzcT2mgRu+17juau14v7Zwn7bpvSc1I/1PdI1XYYgX/wPmb2rs/tQ0t4p38rGhqb06nocE9N3S+7PozqaEjysTUcz+t7V11l65bzPHAcwhtOVRmAuUtgeGKx1xfmLrz9v+X8OPsl8t/qqlKuCijr9WXI3Srk+LgpUCg0Sx9/z5to6DaNVxq1RCN1MxuP/l0nVmPU2R0NK68zSn0gI5YYwLbLVPRcAAAgAElEQVS0ZFlJpKhAodSqE+M/1UXcz6re+bwNOjH83U6VCYCsRwgg54O+hD84Fi+XXsvcbs34P5g3708UY/8k8KfnSxiSSeHvqZ0pOduCXFWxB5g9dBjfnvqv+G9yVGbi+8P73M8uEkElylWcJe5LgojI0qF+vZL+nsTprzzpv+ACRi+t5ddxjqWM8Tdh6t/XGHxHG2tbYxKulXHJ+i+wPOwac1T1sLfi8S5/zYjnWpY2Td7ZSZhXFjr17aifvr14Om1nRk15nm/GH2J1cDwvvpjFvmWHSa7/Iu/2KN4q0m7szrz9V5iXHs+5o9tZPGsGP/v24/nk4kND1X+/7OgzqiOGh46x5ngcw4bZQMwOtp5/gOOHb1ClNkGpSh4WgUctV2lKfn2NGTOmyjk+Ns4T+dx5IgDnj5bw99yJhq0BnF0xOuTDutuHCLrZC8+GjzPQynuGGgVg2aQ7d0/+zK1f+mI7tltthyNVo/wP+qJ/sOhQ7HM5Z/XBMGxUL/DfzoPM2jyb7bP/Ylyxn9HQo+XoObzbqViuanNAolk7+hV8/9Wk/QRfxrkZ5h4va45JzZSrOG3MbZ1KmX+SzqVf38BjViBaA9cS5D8Ch7I+YPStsC+1JV3kqua21ObGs9rmtjjlFbqUzSfs+k2ip+lwdn+7m+iWsPbUPSwHvUXHsqbV6FvRst8kVvRyp11fN97Z9DUHZu1imFo7oibul12fUXQ0PMSxNceJGzaMzK2bCH/gyIdvOFXzRM3SPVq5Ss21xNeXs3NJrY+6TI/W5o3Qjb9GfG0smqikp6ZREHPvFtCgzDT1Xl7Jndj2JF/6nvMp3XApaTjApi2t6sHui8GkqIZhk/uqU927RNyTekOzkklOBcqZT1cWhZZO9faM3Api09Z/ocNQhncq+77kBoDOIwSQ/0FfmZO0nRn/1Sss9vydb5eexuub9kWqUAf7F0fy7rAycr0RzB9n72HSby2/rxxJ4/w/xFFv9zeVaxRoalF0Xl6VylUuFVHrX6PruD0w4GeObyynQVCEuP+ggt8OVdwv2vXxpLDpwbv96hPwxy98/z2cTLNn/PudKDSYmhrJvq0Hud6oD0P7NS94bmg70vs5K/gnZwXGMLVTauR+5Q4hHAraytn4TsTsiuCB45QqDh2UJZXIfVs5eL0RfYb2o7nai6FmnocVeH2VRqM2tjduQgNtHVT3orhxFxyMABK4ee8ODzTb0qiMHyKM+O8GmZpmWNSB3216OpYkXviJ25eioF4vyv6BSCOcrVuDiOF+WGlpGjLEwx4uLeKVyf6ERkYSGbqdGW98x7kKrJSpqKzkZB59ibMx9g6mKOIPsfl8wUIi1eVDnIgH0+btiq8Bjz/BocsFg6GqCH/+jAbz5q4YFk2LiqiNQ2igVGLcfiaBJaxbtHFtT0NFMkFbz6ptp6oi6sAcJnn7sDw8b5MmG1zbN0SRHMLea2oZqSLw/zMa6rvR3SzvoAHtmpvC9X/Ye1Et1txyFQ6gHd0dtEgJ+4to9fji9zKhhSVOb+yk1OF0wOr5aQy3f8CFnxfkjy/nZNsdB60Uwv6KpnC2E2hh6cQbOwvnqkpNJEN9jDnpOsFRpWxhlhLGX+rBxp9la1AyCss2tMxbkPKI5SqdiqiNr9HlzV3Q5wf2/zYGJ/2S0hljZ2ME0b+z4qT6/bpMwIpjpJg2p13+k0sHeys9ko/9wuEotUpIOsWP/lEo6reiZcV/ubWUmMt+HlaeFc9PG4595gmWLj1BpuNwJrkWbVUns22ONxPfW8F59Wuqovj3zB0wbEyzvDf5GrtfkD+EcPtv1m38jXWnM3Ec8ihDB0Z0bmUB0X/ir74uM+k8K96byOQv/yAl79gjlCsrJamUJcRlv75mTPEpvwhKx/LTVDs9mlu2xuT+KXYd9mP7qd1sO/A9+5LTMTfrSBP1hTsig1sRpwkO38f2v2bjf+sG2gYdaFu9raoa8VT0FEQc/Jr7dMDoxfeKrlarAmM6fbGRT4/24euVr+K2ElAY4DrqdbpeXkWhn5bI/Tac8xtUdwm6lgVZ19i9bgl3jAD0cOwzlH7qTW5jexxMFezeOIGJ9cfTvaF2yekqGKur9yTcVk5nobsbIaO9GWQeymq/zYTed8HnM/cSWvYXmdenM/+8ORrX3CWJ5x9YMWLic1gXSxvHju93k/DwIQRv5vfb8+lctG/TfgyzBi5h1OYhtI8bzrj8JYmhpFiN4JMX7dSSzmLgklH84uFG5NA385ckBpzXoPXsaXTK/5pmQ4/JL2K1ez0fdunMSe/cJYlr/ilhH3dHRn7qybfDV9Df7SKjvb1wuhuYs8wv1ojXF3YqoVzqVeiK9yQ3Vk7/nRk/ReA+M3cpluNIPvX8luEr+uN2cTTeXk7cDfRnzdbjxBq9zsJOublaP8fE/lbsWP8hXTqfxHv08xhd28vqdecxc7KkxHfMekYEjmnHC/3eZVDeksTbOrhNe12t2/0Ry1Waq0sYPuZ3ksy78XZ/DY5vXMJxtT/rOeZ9KzbG7aNZvLBxEgvd3QgsdL/u4+LzGe75Ty57hvmO5/96/Mjo9m5sfnM0vY1yyxVrwcC1E9U+wG4RtGkr/+b+cNvdoGtkkcW13etYcscIsKDD0OEU7lyqwPOwCnImHC5n1hloO3pM8Q9ZYzemvteFtT4LcXcLZOibXnQ2usbe1WsIOJ+Bi8/XDM5/etfQ/cqVM4Qwnp2+SyDTEe9iQwe53/Iv5zZEb5zO+WA//RtLluRe2aIDQ4d3ogHW9Jw+AZc9vnzWpTUnx4zPX5L4d4wGbt94U9A+qkq5dGnW2JCM43MZ653Kqy0Ncy+v1mtYxuurz4Sl5VeIorq2vKocS7dJjFBlszn6Hw5ePgQaxljWG8Pr3btipp5QFcT2kKCcfyt0MDb0YHC3ITjURtCVdeXKlTq+JLGiSw1zbR0iTkzvIEKPlJcwTdyMOCr++OOoOBedKLJyl7MVWmaTu+yHUh8lL7VK/Pcb0ctaT2iWki5nSaL6ki8hylrymBiyTAxrYSZ0FAgUOsKsqbuYuT9GFF6slLdMcZr4Y8sY0cJMRyhQCB2zFmLYshC15YTqUkTotz2FmaZCGLSYLPbfLDGREGlXxe5pXYW1nqYAhELHTDR1nyn2xxRfLpV2cZOY2MFa6GkiyLu+X5C4WSxpoghZNqwgTssuwmf/fjGt2FJLIYRIE1d3TxNd8+q0tDoo6R4KUbAUzHaiUF8hVuFyJYaIZcNaCDMdRUGZloWIk8WW4xXcw2XbC54DmnrWoqvPflG8uipYroouhxWi3Ods0bpJDFklxlTofmWJmP0zhXvT3OchmkLPuquYtvuqKLyCL/d5WGoMRZ/3QlTkeVjya0aUfs+FEELcFAHD6gu03MQ3l0qrsEQRtnmy6NrIqKBc9VuWUgc1cL/yXRM/9TbMeR46+YjiKxFz8yzr/ajQ6yZL3AzyK3jfQFPoWXcQY1aV9F5Q0XIVyLq6RYzJzzvnUWx5ZCmvr3OJ9ytUI49/SWLdU5UliYorV66IzMxMVq5cycKFC2u+FfKojvpwKmAtGu0jaO9lBBzjzNxhZGh6YuTkWv75d9ZzNyYLPc9TtH2+EteNXYdH61H823sbZ39/5ZFa/dKzKo7NA1sz/Fg3NoUVnqAm1YK4zQxsPZzDbj8R/tc4is0zlZ5okzd48WLrYbzYalj5iZ9Ru8M3sztsMz++7l9qmvDwcByaOmGgpwPUxeED655oGW4gM6Q/Z+vvpU3P3ON3A7gbHFCxPAxHY1Rmg6BIVxz3CPn5K/almPLi6x1lg0CSngLR+5ZxOLn43gRS3WCoY8zdzLqys2HtyBaVn+hb9xoFTV7EdciPhG6bTPq+/pzl65zj9aZi84JHBTLQx9itaTkT9VM588OHeAcUPOE09azpOdefVSXv7iJJUl2iimDtD0e5V/+VEvcmkJ58tuZNSbxXF7YDqj0xiVdwaehWqXPqXqMAoMUgXIeQ2zB4Bw0NwNAcG7fW1XQBG4bt+g/ZKSVVL/m8emJoOzMzVMXM2o5DqjIbM3sOXNhJYloCFgaPtLzlqZShSiMm6QouDSswrK6m7i5JbDEI1yE/omuQRnZ2A3Sbudd2RJIkSdJj0qKhK5ZGDfnjzHoyVE/qJjK1I0OVxsZTK9DTNuC5pn0qdW7d7CnI02IQri0G1XYUkiRJ0mPmZNkS9xYvszbQj3tZqYzq7I2pvkVth1XrMlRprD+1jJCYE7i3GISTZctKnV+3GwWSJEnSM6tLk95kPchk55l1zA14H6cGLbE2sUWpUf5PgD9tssnmZnIMV25HkK5Kw73FIAa1HVnpfGSjQJIkSaqzejYbQKtG7dkTvoW4/6I4fyOUbPG4f6LzyWBtYotLQ1e6O3ngUK9ZlfKQjQJJkiSpTrMwsGRUZ+/aDuOpUHcnGkqSJEmSVK1ko0CSJEmSJEA2CiRJkiRJyiUbBZIkSZIkAbJRIEmSJElSLtkokCRJkiQJKLIkMSEhobbikCRJkiSplslGgSRJkiRJQJFGQatWrWorDkmSJEmSHrPw8PBC/5dzCiRJkiRJAmSjQJIkSZKkXLJRIEmSJEkSIBsFkiRJkiTlko0CSZIkSZIA2SiQJEmSJCmXsvwkkiRJkvTkylClcSgygOvJ14hOukJyemJth/TYGeuaYmvRFBszB55v2hdTfYsq5SMbBZIkSVKddSnhHKtP/EByeiLWJrY4W7XBXL9+bYf12CVnJBGTdJnzN0I5fHEPQ93G0KVJ70rnIxsFkiRJUp10KeEciw/OwdrElkken2JjZl/bIdW6xLQEfj2+iLWBfmQ9yKRnswGVOl82Cirg8L4JbElMrsQZmpjUe5tP+vbBpMaikiRJenZlqNJYfeIHrE1smdbvK3SUurUd0hPBwsCSD9zn8r9DX7LzzDpaNWqPhYFlhc+XjYKK0rSnTYNWGJWbMIZzN86SfGcFC/YjGwaSJEk14FBkAMnpiUzy+FQ2CIrQUGgyussU5ga8z95z2xjRaVKFz5WNgorSaEDznmPoWW7CtXy14SwPtE1IlQ0DSZKkGnEt8RIuDd3kkEEpTPUtaFq/RaUnXcoliTXE2HIqHqZ5DYODpNR2QJIkSU+RGykxGOuZ1nYYTzQbM3si4s9W6hzZKKgxLngOkA0DSZKkmpCcnoi5wbO3yqAylJpaZIuHlTpHNgpqyMP7pwmOyKChwzC6GuqSUtGGgSqWvd4tMdRQoFCYMXBzXLEkcZsHYqZQoCjtYTaQQqclhfLT2I400leiUCjQ0DXHZfgSTsWrHrGUSYT6DaCBMue6TtMjS0/301g6NtJHqVCg0NDF3OUVFhyO5ZEiqGK5ko5Nwk5Dm+bTTpJU7K8qYg/Moq+jOboaChQKJfqNuvHRnijSHyXW3Hj9BjTIqQOFE6VWV6Wy/ImxHRuhr1SgUGiga+7CKwsOE1usCipTrkrerxoolyQ9GQR3Ti/ms01eTN4wnAXHS0iRcoR1f0xg6oacNB9um82W86kFCTJXM2+DF5PzH6/ygf80fg6+9fiKUQnKL+b/Hw8fPCA25mptx/JUuXXra34ucs9T7mxi49k+TGxT8jmq2L184DGUpReggbUFqutltfDq4z7zc16xVj92m72+89iZaYK5Tu6h1GDm9OrKl+FKbHtNxNfLjmh/P1Zv8ab7hVscP/oF7YyrUMCkUPxG9uf9PxMxbmyNYeyNUhKmEjynF12/DEdp24uJvl7Y3djL6jV/4NP7JGd2h7DOw6ry169quZKOMWPECmIbv82RmV0wL/rn49Po5fEj0cYueE6ZTm+jc/iv2cr3np24uDYI/xEOaFc+WpJC/RjZ/33+TDSmsbUhpVZXJaQGz6FX1y8JV9rSa6IvXnY32Lt6DX/49Obkmd2ErPMgr2YrXq7K3a+aKJckPRkeEHZ0DmtiL/JQtwEGmXeKJ3l4hjV//cC/9xvibD2Y5rq3CIn7k3/CF2FgN5sXDfISamLd8BM8rARpKWcIvnGQ4IvfYWi1gGHWxbOtVZ5DR4kBg18Xnbt2F1LJ/t47XnhvWSD+rlDqG+L8hX/F6aKPgx8I7/XjxZKQ0s6LFLNbKITCwEVM3HlVXNnkKUwxFZ6bYouljN3kKUxxFD4RhY9nXZgn2mophP3kQJFSKK2h6LH0ksjKT5koTnzYTGhhKUbsT6hQqQq7LrYNthBoWgqPxUHiZriPcAThWDQgIYRI2C9GWCK02s4TFwoCEFlX1woPU4Te80tFVBUiqFq5cv+uqCcGby5er0JEiaXP6wlMPcTaq2rBJh4VE20VQuHkI8KzSjitPNe3icEWCE1LD7E46KYI93EUlHD/KidB7B9hKdBqK+YVrlix1sNUoPe8WJpfsZUoV2XuV42US5Iqxnv9UBEQtqnmLpDxq5i7friY9ecfIiLjVzF3/TDhe6xwEtW5RWLm+pHiuxMp+ceyzn4vZqwfJb4/qZ5P4XMfRC0Vc0rIr7oFhG0S3uuHlpkmLCxM3EvPzP+/Rvd2bejq1gqrekW/M0lV05AWzu1pV/ShVf5CD51mb7Mj7BTLXir726hOo+4MGNiPtoVW4aQS6reKs7RhgrcreV+SMy4nolW/Ff37OKrlaU67sQNpTDo3Y6rSKZ5NtkVfFp84w44pHbEqq2hZSaSowKqLO9ZqhdJ26EDbepCZeLNKQwhVKVdq8GLe9ruIQf9FfP+yTUnBci0+A9NuY+npoBaseUcmezkgbodzLqEKwWZnY9F3MSfO7GBKR6sKLvmJY8d4Jww1lJj3W8HlYpWURVJOxeJeuGLpkFOx3FQVpK1wuSpzv6pULkmqIxQmNLOZwcf9B9K8lCTZKkPMjdrgYFHQLantZI4eKu6X0dGrYayNJhpoKKo35OqgfPW1oWRmZpL43+3ajuUZ14wZ25dVKGX9bj6s/6PIwfijfLfpGkqXeQxtUvBu7jTjBAkziueRcD6SJHRoY6ZVhVhtGLpqQwWTdmaImyG7t85nl48/I3I/lJJOruD3aC2cPxxEFQYPKl8uVQRL3/IlTKsHS//3Kg6VGgPQRkvrEabf2AylotWVL/Eq2/dcJk1A2qmdBCe8jWOhdowNnYe4Ybh7K/N3+RR0/yedZMXv0Wg5f8igciu2hHJV5n5VpVySVFfoDGZY93KSuI7nQ9fCxzLPxpKCPvY6JZ+TnXCSHf+eIEHTkT521RNqdZITDZ8S0bu/ZfdtQ56fMgrn8j7wVBGs8z1AsmkXXu9Y0wNadoxa7c87ln/xZuuWvDzdl89GuOH4/GKSB6xix+z2VGVKQ4lKLZeKyz9PZF4wtJu1nHGO2kAk050UKJymU+K8uNRg5rTRRdngVbYWn+tZ8yxaMfn9XtjWb0jLoW/RtYSODbtRq/F/x5K/3mxNy5en4/vZCNwcn2dx8gBW7ZhN+5IqttxyPcb7JUlPm4dn2HrzHJnarri2L/QHYqJzJhpOOfgtB+/q0tZpMoOftPkEyM2Lng6qCNb+cJR79V/hoxfLa3omETh7KHOCteixdBGDS+pFr2bajbvz0YIx/P2qHzsXzCSAh2g5eDF/Vj/s9KvrKqWXS3X5Z8Z//A/3W89m5TvOFZsomJVMTKKKh+mJpFRuRU81Mae9zyGifcpIot2Y7h8tYMzfr+K3cwEzA+ChlgNe82fRr7SKrUC5Hs/9kqSnjLjNgQM/cjLdmFYtxtKt0B/zJhqCyIrjdNQmQi9+x2bzBQx7wnoLZE/BUyA11I9VZx9gP3waz5fZZZzE6a886b/gAkYvLefXcY5Vmklfyeg483/9cBu8hQbT9xB5J53U6GP4up7ig+59mB1YfFFg5ZVVrtv8M2cO/2Q1w3vF+xVfaVH/BZaHXSPq0i7GPWEv2jypZ/6Pfm6D2dJgOnsi75CeGs0xX1dOfdCdPrMDS1huSQXK9TjulyQ9bR5w9ogvAUkZ1GvwOq+7Fn+jUWrnzC9r3/Zl3urphYMiirDLJ2oh1rLJRkGdl0rEb7uIxpHhk1zL6NpN59Kvb+AxKxCtgWsJ8h9RyXH1Kor254Mvg7Cetpvtsz1oZq6NfuOuTNlwgEWdY1jw2hyCUsvPpnTllSt3Qp51LzzNbhMZGZn7uM5/98vOWdvcFnurJ/WrcTT+H3xJkPU0dm+fjUczc7T1G9N1ygYOLOpMzILXmFNKxZZZrhq/X5L0tBHc+fc7NlyPxaD+BD54oVe5Q2wK065Y6QhSMmpjbLJscvigrsubYNhmHmOcSvuUVxG1/jW6jtsDA37m+MbH1CAA4gK3EXLPgG7tGhR+oWg70vs5K8SRgwTEQ6cqDVRXolzRK+jjvKL4cceKXef+/eyqBFhz4gLZFnIPg27taFC4YnHs/RxW4ggHy63Y4uWq2fslSU+fB5fXsOzKv6iMhvK2e/kNAgBUQSRkKTA0q/ivFz4usqegjit/gqGKqI2v0eXNXdDnB/b/Ngan8r78JgUy080Qpa4NXhujHmnXQWN7B0wVKYT9FV24Ozs9HP+9sWDShJbF4lERtXEIDZRKjNvPpOQe64qWy5i2U77Hz8+vyGMm7sV2SNXB3kqP5GO/cDhKrdRJp/jRPwpF/Va0LOE1nBQ4EzdDJbo2XmyMetRdIvNz5bRvb+wsrWk1YQfFvk8Y2+NgqiAl7C+iC1cs4f57icWEJvkVW/FyVe1+SdJT6P5JAg7/yobDv7LhZBQZCO6m5P7/2N9EAagOsvLMLm5ptqGHgxNpEacJzn2cvVm4S+2B6jTBEf9yJHAtS/7cwtXs+jRtUP5P7D1usqfgiXGLoE1b+Tf3B63uBl0jiyyu7V7HkjtGgAUdhg6nUwO1UyoywfDqEoaP+Z0k82683V+D4xuXoL5Tp55jH4b2a16odZsYvoxfQtN4SBoH154i4TUHCs9HTCVy31YOXs7I+e+N0znbN5/+jSVLrAE9HPsMpV9zY4xdP2T+wI2MWt4TxyOevDm6P/Z3A/Ffs5XjMeDi8xnuxSY7xrHj+90kPHwIwZv5/fZ8OhfdRqPC5TKmeb+xNO9X9BqRxCycz4FCx+wZ5jue/+vxI6Pbu7H5zdH5O/8dj7Vg4NqJFO+MSSR82S+Epj2EtIOsPZXAaw5FCpQayb6tBymorpzNrk//toSc6nKkz9B+NC98E/hx8d/E3Aa2ruT45y8zTD1bY1c+nD+QjaOW09PxCJ5vjqa//V0C/dewNadi+Sy/Yiterkrdr6qUS5LqioeRhNzYRbz6seRdHEsGhXZ3bOmFQ3YciSqB4Az7z55RS6jApP4U2jTMW9P4kBs3v+bnmzn/01A2xNnOm/Gl7G5bq65cuSLOnTsnpk6dWrNbK9VhldvRsBT/fFzOjoYRwscRAaU9iu8UlxI4WdgrEI0nnhQpJWcqRETOboOl5WvquUkU29svdrsY52ggFJpmou9y9R0D8xOITZ6mZcRaZCfGtKti93R30dRMRyhAoNARRo06iDHLg8TNEncITBGh3/YUZpoKYdBisth/s5rKVTiDnPp29BGFqzVLxOyfKdybmgkdBQI0hZ51VzFt91WRVkpOsdvHCUcDhdA06yuWXyqhQLGbhKdpGffW1FMU37gyVmwf5ygMFJrCrO9yUVK2QqSJq7unq8WqEDpGjUSHMctFULGKrUS5Knq/qlQuSaoeNb6j4VOgKjsaKq5cuSIyMzNZuXIlCxcurNkWSB11eN8EtqQ251Wvj6lyZ8+RT5gcl0TLFqt4x7X85JIkSVLpJm/w4sXWw3ix1bDaDuWJtTt8M7vDNvPj6/6lpgkPD8ehqRMGejm7Lck5BZIkSVKdY6hjzN3M5NoO44mWLSo/QVpjS8BxLsXeq4FwJEmSJKlm2Jo3JfGe3J6/LDGJV3Bp6Fapc5RHDu/l8F+7+e+//2oorKdE9i0iD/9KlX8ZNk0u7pYkSaouNmb2HLiwk8S0BCwMnrylfbUtQ5VGTNIVXBpWbrxa2cxIyeXkh4j7aTUU2lPi4TXO3rj2iJmYVksokiRJz7oWDV05G3eKP86sZ3iHt9DTNqjtkJ4YGao0Np5agZ62Ac817VOpc5WTP/uMzIQLzP3i+xoKr+7r2W9V1ScYSpIkSdXOybIl7i1eZm2gH/eyUhnV2RtTfYvaDqvWZajSWH9qGSExJ3BvMQgny5aVOj9nnwJjB6ycW9VEfJIkSZJUI7o06U3Wg0x2nlnH3ID3cWrQEmsTW5QaVflJ+Lotm2xuJsdw5XYE6ao03FsMYlDbkZXOJ3fzokwy7j2o5hAlSZIkqWb1bDaAVo3asyd8C3H/RXH+RijZolZ+2rTWWZvY4tLQle5OHjjUa1alPJTwgFsH1nLm/LlqDk+SJEmSap6FgSWjOnvXdhhPBY3EA6tYeCgeQ+vmtR2LJEmSJEm1SOOrfTex7DmBVjbyV04kSZIk6Vmm8bI13Dh1gDsZtR2KJEmSJEm1SaPH5Em8ZHKNSxcu1nYskiRJkiTVIg2UDek54TUaGejVdiySJEmSJNWinB9E0nXEtnnjWg5FkiRJkqTapFT/T0JCQm3FIUmSJElSLZONAkmSJEmSgLxGwcN7pF2/SKtWcqtjSZIkSXpWhIeHF/q/MuCnZRy9GEf0jbu1FJIkSZIkSU8C5d7Im2Q/hLw5h5IkSZIkPZuUxiYNcWjpyu0rgbUdiyRJkiRJtUhj3sxJjPRwxUBb9hRIkiRJ0rNMtgQkSZIkSQJko0CSJEmSpFzK8pNIkiRJ0pMrQ5XGocgAridfIzrpCsnpibUd0mNnrGuKrUVTbMwceL5pX0z1LaqUj2wUSJIkSXXWpYRzrD7xA8npiVib2OJs1QZz/fq1HdZjl5yRREzSZc7fCOXwxT0MdRtDlya9K52PbBRIkiRJddKlhHMsPjgHaxNbJnl8io2ZfW2HVOsS0xL49fgi1gb6kfUgk57NBlTqfNkoqIDD+yawJTG5EmdoYlLvbT7p2weTGotKkiTp2ZWhSmP1iR+wNrFlWv+U3jIAABPBSURBVL+v0FHq1nZITwQLA0s+cJ/L/w59yc4z62jVqD0WBpYVPl82CipK0542DVphVG7CGM7dOEvynRUs2I9sGEiSJNWAQ5EBJKcnMsnjU9kgKEJDocnoLlOYG/A+e89tY0SnSRU+VzYKKkqjAc17jqFnuQnX8tWGszzQNiFVNgwkSZJqxLXES7g0dJNDBqUw1begaf0WlZ50KZck1hBjy6l4mOY1DA6SUtsBSZIkPUVupMRgrGda22E80WzM7ImIP1upc2SjoMa44DlANgwkSZJqQnJ6IuYGz94qg8pQamqRLR5W6hzZKKghD++fJjgig4YOw+hqqEtKRRsGqlj2erfEUEOBQmHGwM1xpaY7MKsvjua6aCgUKJT6NOo4lp9Ck4qnTQrlp7EdaaSvRKFQoKFrjsvwJZyKVz1iKZMI9RtAA6UChUKB0/TI8gpH1LoBmCmM6LnsMiVevaRydXuPLeEllKuC4jYPxEyRE2PRh9nAzZRSwySdnEZzbQ3sJh2j6ldXzzAUvwENUCoUKBROlFtdFcryJ8Z2bIS+UoFCoYGuuQuvLDhMbLHKVRF7YBZ9Hc3R1VCgUCjRb9SNj/ZEkV48V0J/GkvHRvo5sWroYu7yCgsOx5Z8z2qgXJL0ZBDcOb2YzzZ5MXnDcBYcLyFFyhHW/TGBqRty0ny4bTZbzqcWJMhczbwNXkzOf7zKB/7T+Dn41uMrRiXIOQU15Natr/m5yD1PubOJjWf7MLFNyeeoYvfygcdQll6ABtYWqK6X1sKLY8vwdgzf/h+mLp5Mmd4bo3P+rNm6mgldgrh0+AjfdDbPSZoazJxeXfkyXIltr4n4etkR7e/H6i3edL9wi+NHv6CdcRUKmBSK38j+vP9nIsaNrTGMvVH+OfF/MeujvWS0/oyFIxzRLqtcrsOYObsThPizZqsfwzoc55vQE/g4Fz+rYvRoOXoO73YqPFVUz7EtJRZfFcFKbz8umbzMplndMK/iVfMkhfoxsv/7/JloTGNrQypSXeVJDZ5Dr65fEq60pddEX7zsbrB39Rr+8OnNyTO7CVnngVXe9Y9Po5fHj0Qbu+A5ZTq9jc7hv2Yr33t24uLaIPxHOOTej1SC5/Si65fhKG17MdHXC7sbe1m95g98ep/kzO4Q1nlY5cdQE+WSpCfDA8KOzmFN7EUe6jbAIPNO8SQPz7Dmrx/4935DnK0H01z3FiFxf/JP+CIM7GbzokFeQk2sG36Ch5UgLeUMwTcOEnzxOwytFjDM+nGWqQKuXLkizp07J6ZOnSqkkv29d7zw3rJA/F2h1DfE+Qv/itNFHwc/EN7rx4slIaWdFylmt1AIhYGLmLjzqriyyVOYYio8N8UWS5kSOFnYKxTCduJRkah2PPGkj3DRQRj2/klcyz0Wu8lTmGIoeiy9JLIKUooTHzYTWliKEfsTKlSqwq6LbYMtBJqWwmNxkLgZ7iMcQTj6RJRxTor416eF0FLYiolHE0tOcukb4aaFqD8sQNxUL9eJD0UzLUTjiSdFShWijS2jLss+p2i9VdH1bWKwBULT0kMsDropwn0cBTiKMqurXAli/whLgVZbMe+CWoRZV8VaD1OB3vNiaVTewSix9Hk9gamHWHtVLW3iUTHRViEUTj4iPO9wwn4xwhKh1XaeKJztWuFhitB7fqnIz7ZGyiVJFeO9fqgICNtUcxfI+FXMXT9czPrzDxGR8auYu36Y8D1WOInq3CIxc/1I8d2JgnemrLPfixnrR4nvT6rnU/jcB1FLxZwS8qtuAWGbhPf6oWWmCQsLE/fSM/P/L4cPql1DWji3p13Rh1b5nTI6zd5mR9gplr3kUMK36ALxAQeJFg54Te5Y6BuseWdvZvQy4d65g1y6nXMs43IiWvVb0b+P+jdzc9qNHUhj0rkZU7zzuHzZZFv0ZfGJM+yY0hGrCvQ3qSKW8vaiCCxeX87n3Ur53v3wP+7e16N5bxes1A6b23TGyQDSb93gXhWiLSyd+KtXiS+r2PF/4vP+bjLazWL5uJJ6NCopOxuLvos5cWYHUzpaVbB7Lo4d450w1FBi3m8Fl4v122eRlKICqy64W6tFqO1Ah7b1IDORm6qCtNfiMzDtNpaeDmppzTsy2csBcTuccwl5SZPIydadwtl2ICfbmwVDCFUqlyTVEQoTmtnM4OP+A2leSpJslSHmRm1wsCjob9R2MkcPFffLGMrXMNZGEw00FNUbcnWQjYInRjNmbF/GSw765aYUWfcRaKClVfTjSoGWUgEP07l7P+eI04wTJCScYIZT4ZQJ5yNJ+v/27jwuqyoN4PjvFXhZlcWFRRSQFzdAwX1JDSGxgZCCTB1TxiXHZUzLUdNyqRyFdLRJHUkmNSlRwNQQN7DMXAABF5wkF2QZMBQCFJAX5c4fgPLC+4oSieT5fj788cK9h3PuhXufe85zzkUXY1OdBtTVGr+QHczua/GYN8ws9sxbRZK+J6s/Hq5yw1dh+Rojbe+S8Nkm4h4M4itJO7aFEwUmDBjbl4b3tLVEdmweDkZGWNrbY2mkh/mwQBLrJAsUkbjuHcLzHJi5YSoNHq2oydqPkB2z6WvxBIXlXWPPgSsUS/f5NWEfSbm1N7Cm/2uuGGVFsiIq7eGNOv80n3+Tjk5XH3w0HuhqcnR0al0CrPvzmqsRWZEriEp7GInkn/6cb9J16Orj8/D8NaRdgtBc6PoyekgP9cOL1Zu4TOYd7/m8WuP6evd8JoUYYKirfp+K3NPsOX2KXC0FCptGrXGjEEFBM6Rra4E+Nzj1Xa1kvRvniYwvQKfjAJwfdfdUXuKrwBgKTAYwtu/vP6B14+AC3o4uxsruV5b3NEAmk6Ft0J7BC2NUE+Ja9WP5N5/hdms1gxX9eCsoiJnDHXCeeBzb+d8S4mv9G2qRxYFtCXSd9U82bFjLAi8LCn94D++/HeRGja2qezQMFaYcGWVFiweJmcGoy+H83bR2YtbbL9KxrSWOflMZpKbpNuO3ETG9HUcnOOM4aiGBH4zDVfECnxa8TMjeJfRWdzUrSmJpDz20zV8nUm2GpQ3jt0Uwvd1RJjg7MmphIB+Mc0XxwqcUvBzC3iW9H3mRFITn2v1zROZc5K7cBZfeKj8gI70y0XB27Gpib+vR02EWvs9aPgEiKGiWbL3/xnCTO/wwx4Ox//qelNRUUs/uYZ73OMJvGvHCrDEoNO6dT9wSP5Ym6TB05Tp+0332cSgvsW1xJDeQY9DBh7U/XOTCj9uZ7lRKXKA3XiuSqJGni1l3Pz5cPIJ2txMIWbSIf3+XjdxlCh//tRcNfSBtoWdKm7YdGLn2EJGr5jBjxhxWRR4maKAeNw4Fc+pBctwNjn60juSyFsiM+jJ/9xl+So7iY8/WZIRP56XJ4RpnKjQ+M3ov+I703GxSQkah9jTJOzBkXhABXSq4si+IxSvDOFtqw6vL3meEjYYep7ICMvKU3C/Jo1BD96a8wxDmBQXQpeIK+4IWszLsLKU2r7Ls/RFoKlYQnnvSTWJi1nO6pBVO9n9hsMoPtbCyfI9Jru/xl+5v0kM3j7M/r2FXehPV9RFEUNAcWfvy77AZdNfOYPfbbjh37Uq34fM5kFMCHf/MR76a+qTySfyHF55BP9HylWC2NsZ4eX0y9rLzgpKObx0ibu8ivFy64DR4PJ/9eJLlPSu4sGkN8TerN85i77QBDF2UjufmeNKLSriVuptJbGVUvzF8ndawKZRWPtu5nJtO1NQa7ZV3xnNoeyhK5+fq/IKbKWyPuYHh0PXE//gZ4wc70cXFi0V7j7Pr9Tbc2r+Sr678tsPRmIrOfcIIV1/CzRdyIPUWJUXpnAh0IWHuENyXxKmfRtl2OMEXrpN2OYpJav9Mijj3yQhcfcMxX3iA1FslFKWfINAlgblD3FkS9zS7SwShubjH+eOB7M8vpY35WMa61O1P05ZX5pf17jmKqcP8sZOlceHKqSao66OJoKBZktPBcwMXc7O5mnyUgz9eJOkTe7JzWjM2eBnq8/hKuLz1TUa+H4eOdyjxEeOwewpDwVlJx0krN8Z5uI3qtD55V/xH2kBuPDFV95mi+EDmbCvE/YtDbAnoSwcDOWadX2H14f1MMYhi2uRQGj2wLr/Nr9VPzPkxxOeCxUA3FCrHxoIefv0wKU/jeNLT6yt4tHQi5n5IvNW7RO9ZwsjOZsgNOjBo9g5i1vUnI2gMS+OL1O4pN+uIrYWGR/70COZ+GI/Vu9HsWTKSzmZyDDoMYvaOGNb1zyBozFI0FCsIzymJW2fWsON/mRi2ncLc4S/WO8QmMxmEha5EYemzcj15SAQFzZmBBZ1c3PC0ucjyhYe4N2Qpy4eryy5Tkvb1GAZNOgAvf8HJsKcTEAC00NFBC4l75VKdOpWXV4BOS0y1Kr+Ts/sg16U2OPWs1VluZsNwZ2PunP+WpCeeB68kP+MyqZczyFeqfr/270emi44MKsrL6yzSI5XfQ0KOsZmG7KGnLSuO3cl3MOzUC3OVK5AchdtALKR0Yvff0LR3lapjoFLsbpLvGNKpl7nqhU2uwG2gBVJ6LPUWKwjPkXtXvmTT1TMoW77Kmx71BwQAKOPJLZNhpPv4by98WkRQ0Ozlc+Ljeewt7MrMf46r9YQLoCQtbAwDJkSB+784sj0Ah/rGhfPjWOxqhLaeNf5haepXsXtMVr1eoYdRISc+368yrU6ZFsGiL9OQtR+MW9X/hV7nDhipSaBUZiaxO7EQmVkXOrepU1niFrtipK2HtX8Y6kYYcjZ60c1xJEEXajziKq+xNzYTLPrxYvX/pYUX7jYy0iLWk1Czlzw/jg3/+J5CI0fcHeouq5oftxhXI230rP0Ja+AQR135JAa6YdPOCqcpe+vmMrSyxc5ERuGFo6Sr9OiXkBJxiEyM6eRYfaJ1sbXQp+DEFo7VrF9+Ausj0pC1dcKxXXWxdpjICrlwNF11+KEkhYhDmWDcCUeRVyA8D8pPs//YVnYc28qO02mUInG7sOrzie9JA1DGsvlcFL9o9WConQPFlxJJqvo6n6PapXZPmUjSpTMcjwtl48FwrlW0xd68/lfsPW1iavEz4xfid0ZypuqFVrfjr1NGGdejv2LjrZZAa/r4vUE/c9W9ihKDmPpFJuavRzNHXbr5tY28EfAN+WaDecuzBSfDNlJzpU59hTt+I7qoRLd5KZvYcraY+xQTG5pA7hi7WoluRaQejiT2Smnlx+zEyuWbE7ezcaMVoI/C3Y8RXVqBjS8rZ65hWOAMXBxC8Zvgj+Pt79j25X7+W9Aa340L6Ff1y218VzJzzTACZ7jgEOrHBP/+tLx+6MG2r6yZhkPtoCcvhU1bzlJ8H4pjQ0nIHYOdSmXlOExbhvd/xhM0zJn4iTPxt8nmwH+2sv/nFvRaNQfX6sa3cuGdFd6EjQ9mmOI4XhMmPlj572QGOC9ZjX+dcfg8UjZt4WxlBQhNyGWMXa2ejqJUDkfG8vBwVS52nbh9I5WHS4G73wi6qJ4E1n/6PRk3gcjNnFw2itE1i1VTV0/b28RFfEnkyQzovoAPPKp3sGV04GQ+Gbqeib1d2VWzXZmt8Q59eFxbubzDCu8wxgcPQ3HciwkTPbG9HffgGHRf8AEPim1IuwShubifSnJ2lMrsJAqiOFEAMvkQOvIidhVZ5CklJM5x5Py5GhvKMG47mx6WQ6oLIztnJV/kVH5qoW1JV5uZTNawum2TEisa1u/JVjTU4Ie/17Oi4SVpgQIJNH2pWSmu7CdpVS/duivVqRRbudqgpnJNvHZKddb5y9wjTVIYSjItU+mlYHUr+mVKO71MHlHX2qsH5knJIQFSHyt9SQskZLqSqb2HtPhIRp2yy3LipeCAPpKVvlZlWVr6UlsHD2lh9DWpWG0DM6U9kxSSoUxLMn0pWLqs4TAU/7xTmtbHStLXQgKZpGvaTRq9IV7KqbN9mZRxZLHkYW8q6cqQQEvSt+ojBYQkSxrWYZQy90ySFIYyScv0JSlYXQUyd0peJo84tyZeUt3FFh+nXcXSteiFNeoqk3Rbtpf6BARL8XUapq5dg6R31R3X4mtS9EIPyd5UV5JVna+W7ftIAcG1jleD2iUIjeN3X9HwD6AhKxrKrl69Kt29e5fNmzezdu3apxCGND/HDk8hvKgLr/v/nQZ39hyfz6ysfBy7hTDdpTFrJwiC8PyZtcOfPzmP5k9Oo5u6Ks+s6JRdRF/YxfqxERq3SUlJwc7eAUP9ynwpkVMgCIIgNDtGuq24fbegqavxTKuQKurfqBYRFAiCIAjNTkcze/Lu3Kx/w+dYRt5Vulu6PtE+ItHwcVX8QuqxrTT4zbDFYnK3IAhCY7E2tSXmp33kFefS2vDZm9rX1EqVxWTkX6W75ZONV4ug4HHdv8757Ou/sRCTRqmKIAjC866bpQvnsxL49tzXvNFnKvpyw6au0jOjVFlMWMLn6MsNGWjv/kT7iqDgMQwbEdLwBENBEASh0Tm0c8Sj2yhC4zZwp6yI8f1nYmLQuqmr1eRKlcV8nbCJ5IxTeHTzwaGd4xPtL4ICQRAEoVka0MmNsnt32XfuKz7a/zYO5o5YGXdEu0VDXgnfvFVQQU5BBldvXqJEWYxHNx98ev75icsRQYEgCILQbA3r/DJO7XtzICWcrF/T+G/2WSokDa8A/YOzMu5Id0sXhjiMxK5N5waVIYICQRAEoVlrbdiO8f1nNnU1/hDElERBEARBEAARFAiCIAiCUEUEBYIgCIIgACIoEARBEAShiggKBEEQBEEARFAgCIIgCEKV/wNwQxHqshK+cQAAAABJRU5ErkJggg==;sketch=1;imageBorder=default;" parent="1" vertex="1">
                    <mxGeometry x="551.5" y="360" width="267" height="162.16" as="geometry"/>
                </mxCell>
                <mxCell id="21" value="同时也在内存中的map缓存&lt;br&gt;（rpc服务名-&amp;gt;服务器地址列表）&lt;br&gt;中添加一项" style="rounded=0;whiteSpace=wrap;html=1;comic=1;sketch=1;fillColor=#ffe6cc;strokeColor=#d79b00;" parent="1" vertex="1">
                    <mxGeometry x="840" y="400" width="180" height="70" as="geometry"/>
                </mxCell>
                <mxCell id="22" value="服务发现逻辑" style="rounded=0;whiteSpace=wrap;html=1;comic=1;fillColor=#f8cecc;strokeColor=#b85450;sketch=0;" parent="1" vertex="1">
                    <mxGeometry x="364" y="560" width="100" height="40" as="geometry"/>
                </mxCell>
                <mxCell id="25" style="edgeStyle=none;sketch=1;html=1;exitX=0.5;exitY=1;exitDx=0;exitDy=0;entryX=0.5;entryY=0;entryDx=0;entryDy=0;fontSize=11;" parent="1" source="23" target="24" edge="1">
                    <mxGeometry relative="1" as="geometry"/>
                </mxCell>
                <mxCell id="31" style="edgeStyle=none;sketch=1;html=1;exitX=1;exitY=0.5;exitDx=0;exitDy=0;entryX=0;entryY=0.5;entryDx=0;entryDy=0;fontSize=11;" parent="1" source="23" target="29" edge="1">
                    <mxGeometry relative="1" as="geometry"/>
                </mxCell>
                <mxCell id="23" value="ServiceDiscovery# lookupService" style="rounded=0;whiteSpace=wrap;html=1;comic=1;sketch=0;" parent="1" vertex="1">
                    <mxGeometry x="47" y="670" width="110" height="40" as="geometry"/>
                </mxCell>
                <mxCell id="27" style="edgeStyle=none;sketch=1;html=1;exitX=0.5;exitY=1;exitDx=0;exitDy=0;entryX=0.5;entryY=0;entryDx=0;entryDy=0;fontSize=11;" parent="1" source="24" target="26" edge="1">
                    <mxGeometry relative="1" as="geometry"/>
                </mxCell>
                <mxCell id="24" value="ServiceDiscovery实现类中的属性" style="rounded=0;whiteSpace=wrap;html=1;comic=1;sketch=0;fillColor=#ffe6cc;strokeColor=#d79b00;" parent="1" vertex="1">
                    <mxGeometry x="49.5" y="730" width="105" height="40" as="geometry"/>
                </mxCell>
                <mxCell id="26" value="&lt;pre style=&quot;background-color: rgb(255 , 255 , 255) ; color: rgb(8 , 8 , 8) ; font-family: &amp;#34;consolas&amp;#34; , monospace ; font-size: 11px&quot;&gt;&lt;pre style=&quot;font-family: &amp;#34;consolas&amp;#34; , monospace&quot;&gt;&lt;span style=&quot;color: #0033b3&quot;&gt;public class &lt;/span&gt;&lt;span style=&quot;color: #066555&quot;&gt;ZkServiceDiscoveryImpl &lt;/span&gt;&lt;span style=&quot;color: #0033b3&quot;&gt;implements &lt;/span&gt;&lt;span style=&quot;color: #6c00d5&quot;&gt;ServiceDiscovery &lt;/span&gt;{&lt;br&gt;&lt;br&gt;    &lt;span style=&quot;color: #0033b3&quot;&gt;private final &lt;/span&gt;&lt;span style=&quot;color: #6c00d5&quot;&gt;LoadBalance &lt;/span&gt;&lt;span style=&quot;color: #871094&quot;&gt;loadBalance&lt;/span&gt;;&lt;br&gt;}&lt;/pre&gt;&lt;/pre&gt;" style="rounded=0;whiteSpace=wrap;html=1;comic=1;sketch=0;align=left;" parent="1" vertex="1">
                    <mxGeometry x="20" y="800" width="400" height="70" as="geometry"/>
                </mxCell>
                <mxCell id="35" style="edgeStyle=none;sketch=1;html=1;exitX=0.5;exitY=1;exitDx=0;exitDy=0;entryX=0.5;entryY=0;entryDx=0;entryDy=0;fontSize=11;" parent="1" source="29" target="32" edge="1">
                    <mxGeometry relative="1" as="geometry"/>
                </mxCell>
                <mxCell id="107" style="edgeStyle=orthogonalEdgeStyle;rounded=0;sketch=1;html=1;exitX=1;exitY=0.5;exitDx=0;exitDy=0;entryX=0.5;entryY=0;entryDx=0;entryDy=0;fontSize=11;dashed=1;" edge="1" parent="1" source="29" target="106">
                    <mxGeometry relative="1" as="geometry"/>
                </mxCell>
                <mxCell id="29" value="使用rpc服务名从注册中心中获取拥有该服务的服务器地址列表" style="rounded=0;whiteSpace=wrap;html=1;comic=1;sketch=0;" parent="1" vertex="1">
                    <mxGeometry x="271" y="645" width="190" height="50" as="geometry"/>
                </mxCell>
                <mxCell id="30" value="由于内存中存在map集合作为缓存，所以在第一次从zookeeper中查找之后可以直接返回列表" style="rounded=0;whiteSpace=wrap;html=1;comic=1;sketch=1;fillColor=#ffe6cc;strokeColor=#d79b00;" parent="1" vertex="1">
                    <mxGeometry x="899" y="620" width="180" height="60" as="geometry"/>
                </mxCell>
                <mxCell id="33" style="edgeStyle=none;sketch=1;html=1;exitX=0;exitY=0.5;exitDx=0;exitDy=0;entryX=1;entryY=0.5;entryDx=0;entryDy=0;fontSize=11;" parent="1" source="32" target="23" edge="1">
                    <mxGeometry relative="1" as="geometry"/>
                </mxCell>
                <mxCell id="34" value="返回从列表&lt;br&gt;选择的地址" style="edgeLabel;html=1;align=center;verticalAlign=middle;resizable=0;points=[];fontSize=11;" parent="33" vertex="1" connectable="0">
                    <mxGeometry x="-0.3545" y="2" relative="1" as="geometry">
                        <mxPoint x="-10" y="-5" as="offset"/>
                    </mxGeometry>
                </mxCell>
                <mxCell id="47" style="edgeStyle=none;rounded=0;sketch=1;html=1;exitX=1;exitY=0.5;exitDx=0;exitDy=0;entryX=0;entryY=0.5;entryDx=0;entryDy=0;fontSize=11;dashed=1;" parent="1" source="32" target="36" edge="1">
                    <mxGeometry relative="1" as="geometry">
                        <mxPoint x="525" y="730" as="sourcePoint"/>
                    </mxGeometry>
                </mxCell>
                <mxCell id="32" value="使用loadBalance对象获取一个服务器进行连接" style="rounded=0;whiteSpace=wrap;html=1;comic=1;sketch=0;align=center;" parent="1" vertex="1">
                    <mxGeometry x="226" y="720" width="280" height="40" as="geometry"/>
                </mxCell>
                <mxCell id="43" style="rounded=0;sketch=1;html=1;exitX=0.5;exitY=1;exitDx=0;exitDy=0;entryX=0.5;entryY=0;entryDx=0;entryDy=0;fontSize=11;" parent="1" source="36" target="40" edge="1">
                    <mxGeometry relative="1" as="geometry"/>
                </mxCell>
                <mxCell id="44" style="edgeStyle=none;rounded=0;sketch=1;html=1;exitX=0.5;exitY=1;exitDx=0;exitDy=0;entryX=0.5;entryY=0;entryDx=0;entryDy=0;fontSize=11;" parent="1" source="36" target="39" edge="1">
                    <mxGeometry relative="1" as="geometry"/>
                </mxCell>
                <mxCell id="36" value="LoadBalance接口的实现" style="rounded=0;whiteSpace=wrap;html=1;comic=1;sketch=0;fillColor=#ffe6cc;strokeColor=#d79b00;" parent="1" vertex="1">
                    <mxGeometry x="624.5" y="720" width="152.5" height="40" as="geometry"/>
                </mxCell>
                <mxCell id="46" style="edgeStyle=none;rounded=0;sketch=1;html=1;exitX=0.5;exitY=1;exitDx=0;exitDy=0;entryX=0.5;entryY=0;entryDx=0;entryDy=0;fontSize=11;" parent="1" source="39" target="45" edge="1">
                    <mxGeometry relative="1" as="geometry"/>
                </mxCell>
                <mxCell id="39" value="ConsistentHashLoadBalance&lt;br&gt;一致性哈希选择策略" style="rounded=0;whiteSpace=wrap;html=1;comic=1;sketch=0;fillColor=#dae8fc;strokeColor=#6c8ebf;" parent="1" vertex="1">
                    <mxGeometry x="727.5" y="790" width="171.5" height="40" as="geometry"/>
                </mxCell>
                <mxCell id="42" style="edgeStyle=orthogonalEdgeStyle;rounded=0;sketch=1;html=1;exitX=0.5;exitY=1;exitDx=0;exitDy=0;entryX=0.5;entryY=0;entryDx=0;entryDy=0;fontSize=11;" parent="1" source="40" target="41" edge="1">
                    <mxGeometry relative="1" as="geometry"/>
                </mxCell>
                <mxCell id="40" value="RandomLoadBalance&lt;br&gt;随机选择策略" style="rounded=0;whiteSpace=wrap;html=1;comic=1;sketch=0;fillColor=#dae8fc;strokeColor=#6c8ebf;" parent="1" vertex="1">
                    <mxGeometry x="480" y="790" width="171.5" height="40" as="geometry"/>
                </mxCell>
                <mxCell id="41" value="即从服务器地址列表中随机选择一个作为选择调用的rpc服务器" style="rounded=0;whiteSpace=wrap;html=1;comic=1;sketch=1;fillColor=#ffe6cc;strokeColor=#d79b00;" parent="1" vertex="1">
                    <mxGeometry x="480" y="860" width="171.5" height="40" as="geometry"/>
                </mxCell>
                <mxCell id="45" value="一致性哈希算法" style="rounded=0;whiteSpace=wrap;html=1;comic=1;sketch=1;fillColor=#ffe6cc;strokeColor=#d79b00;" parent="1" vertex="1">
                    <mxGeometry x="757.5" y="860" width="111.5" height="40" as="geometry"/>
                </mxCell>
                <mxCell id="48" value="一致性哈希实现细节" style="rounded=0;whiteSpace=wrap;html=1;comic=1;sketch=0;fillColor=#f8cecc;strokeColor=#b85450;" parent="1" vertex="1">
                    <mxGeometry x="349" y="940" width="130" height="40" as="geometry"/>
                </mxCell>
                <mxCell id="56" style="edgeStyle=none;html=1;exitX=0.5;exitY=1;exitDx=0;exitDy=0;entryX=0.5;entryY=0;entryDx=0;entryDy=0;fontSize=11;sketch=1;" edge="1" parent="1" source="49" target="50">
                    <mxGeometry relative="1" as="geometry"/>
                </mxCell>
                <mxCell id="49" value="输入：&lt;br&gt;① serviceUrlList，服务器url地址列表&lt;br&gt;②&amp;nbsp;RpcRequest对象，包含调用参数等信息" style="rounded=0;whiteSpace=wrap;html=1;comic=1;sketch=0;fillColor=#ffe6cc;strokeColor=#d79b00;align=left;" vertex="1" parent="1">
                    <mxGeometry x="55" y="1160" width="235" height="50" as="geometry"/>
                </mxCell>
                <mxCell id="58" style="edgeStyle=none;sketch=1;html=1;exitX=0.5;exitY=1;exitDx=0;exitDy=0;entryX=0.5;entryY=0;entryDx=0;entryDy=0;fontSize=11;" edge="1" parent="1" source="50" target="57">
                    <mxGeometry relative="1" as="geometry"/>
                </mxCell>
                <mxCell id="50" value="获取serviceUrlList对象的hashCode值&lt;br&gt;System.identityHashCode(serviceAddresses)" style="rounded=0;whiteSpace=wrap;html=1;comic=1;sketch=0;align=center;" vertex="1" parent="1">
                    <mxGeometry x="40" y="1240" width="265" height="50" as="geometry"/>
                </mxCell>
                <mxCell id="55" style="edgeStyle=none;html=1;exitX=0.5;exitY=1;exitDx=0;exitDy=0;entryX=0.5;entryY=0;entryDx=0;entryDy=0;fontSize=11;" edge="1" parent="1" source="51" target="54">
                    <mxGeometry relative="1" as="geometry"/>
                </mxCell>
                <mxCell id="51" value="&lt;pre style=&quot;background-color: rgb(255 , 255 , 255) ; color: rgb(8 , 8 , 8) ; font-family: &amp;#34;consolas&amp;#34; , monospace ; font-size: 11px&quot;&gt;&lt;pre style=&quot;font-family: &amp;#34;consolas&amp;#34; , monospace&quot;&gt;&lt;pre style=&quot;font-family: &amp;#34;consolas&amp;#34; , monospace&quot;&gt;&lt;span style=&quot;color: #0033b3&quot;&gt;public class &lt;/span&gt;&lt;span style=&quot;color: #066555&quot;&gt;ConsistentHashLoadBalance &lt;/span&gt;&lt;span style=&quot;color: #0033b3&quot;&gt;extends &lt;/span&gt;&lt;span style=&quot;color: #066555&quot;&gt;AbstractLoadBalance &lt;/span&gt;{&lt;br&gt;    &lt;span style=&quot;color: #0033b3&quot;&gt;private final &lt;/span&gt;&lt;span style=&quot;color: #066555&quot;&gt;ConcurrentHashMap&lt;/span&gt;&amp;lt;&lt;span style=&quot;color: #066555&quot;&gt;String&lt;/span&gt;, &lt;span style=&quot;color: #066555&quot;&gt;ConsistentHashSelector&lt;/span&gt;&amp;gt; &lt;span style=&quot;color: #871094&quot;&gt;selectors &lt;/span&gt;= &lt;span style=&quot;color: #0033b3&quot;&gt;new &lt;/span&gt;&lt;span style=&quot;color: #795e26&quot;&gt;ConcurrentHashMap&lt;/span&gt;&amp;lt;&amp;gt;();&lt;br&gt;}&lt;/pre&gt;&lt;/pre&gt;&lt;/pre&gt;" style="rounded=0;whiteSpace=wrap;html=1;comic=1;sketch=0;align=left;" vertex="1" parent="1">
                    <mxGeometry x="310" y="1010" width="668.5" height="60" as="geometry"/>
                </mxCell>
                <mxCell id="53" style="edgeStyle=none;html=1;exitX=1;exitY=0.5;exitDx=0;exitDy=0;entryX=0;entryY=0.5;entryDx=0;entryDy=0;fontSize=11;" edge="1" parent="1" source="52" target="51">
                    <mxGeometry relative="1" as="geometry"/>
                </mxCell>
                <mxCell id="52" value="ConsistentHashLoadBalance成员变量" style="rounded=0;whiteSpace=wrap;html=1;comic=1;sketch=0;fillColor=#dae8fc;strokeColor=#6c8ebf;align=center;" vertex="1" parent="1">
                    <mxGeometry x="49.5" y="1025" width="230" height="30" as="geometry"/>
                </mxCell>
                <mxCell id="54" value="这个map保存了 rpc服务名 -&amp;gt; 选择器 的映射关系，默认一个选择器中每个url会对应160个虚拟节点，然后可以利用选择器定位到此次调用对应的虚拟节点，进而选择到对应的rpc服务器地址。" style="rounded=0;whiteSpace=wrap;html=1;comic=1;sketch=1;fillColor=#ffe6cc;strokeColor=#d79b00;align=left;" vertex="1" parent="1">
                    <mxGeometry x="507.63" y="1090" width="273.25" height="90" as="geometry"/>
                </mxCell>
                <mxCell id="61" style="edgeStyle=none;sketch=1;html=1;exitX=1;exitY=0.5;exitDx=0;exitDy=0;entryX=0;entryY=0.5;entryDx=0;entryDy=0;fontSize=11;" edge="1" parent="1" source="57" target="60">
                    <mxGeometry relative="1" as="geometry"/>
                </mxCell>
                <mxCell id="64" value="①选择器不存在&lt;br&gt;或②serviceUrlList发生了改变" style="edgeLabel;html=1;align=center;verticalAlign=middle;resizable=0;points=[];fontSize=11;" vertex="1" connectable="0" parent="61">
                    <mxGeometry x="-0.4756" y="-1" relative="1" as="geometry">
                        <mxPoint x="36" y="-1" as="offset"/>
                    </mxGeometry>
                </mxCell>
                <mxCell id="63" style="edgeStyle=none;sketch=1;html=1;exitX=0.5;exitY=1;exitDx=0;exitDy=0;entryX=0.5;entryY=0;entryDx=0;entryDy=0;fontSize=11;" edge="1" parent="1" source="57" target="62">
                    <mxGeometry relative="1" as="geometry"/>
                </mxCell>
                <mxCell id="100" value="存在" style="edgeLabel;html=1;align=center;verticalAlign=middle;resizable=0;points=[];fontSize=11;" vertex="1" connectable="0" parent="63">
                    <mxGeometry x="-0.4488" relative="1" as="geometry">
                        <mxPoint y="9" as="offset"/>
                    </mxGeometry>
                </mxCell>
                <mxCell id="57" value="根据服务名到selectors集合中获取对应的选择器" style="rounded=0;whiteSpace=wrap;html=1;comic=1;sketch=0;align=center;" vertex="1" parent="1">
                    <mxGeometry x="40" y="1320" width="265" height="40" as="geometry"/>
                </mxCell>
                <mxCell id="66" style="edgeStyle=orthogonalEdgeStyle;sketch=1;html=1;exitX=0.5;exitY=0;exitDx=0;exitDy=0;entryX=0;entryY=0.5;entryDx=0;entryDy=0;fontSize=11;rounded=0;dashed=1;" edge="1" parent="1" source="60" target="65">
                    <mxGeometry relative="1" as="geometry"/>
                </mxCell>
                <mxCell id="67" value="选择器结构" style="edgeLabel;html=1;align=center;verticalAlign=middle;resizable=0;points=[];fontSize=11;" vertex="1" connectable="0" parent="66">
                    <mxGeometry x="-0.2806" y="4" relative="1" as="geometry">
                        <mxPoint x="13" y="4" as="offset"/>
                    </mxGeometry>
                </mxCell>
                <mxCell id="70" style="edgeStyle=orthogonalEdgeStyle;rounded=0;sketch=1;html=1;exitX=0.5;exitY=1;exitDx=0;exitDy=0;entryX=0.5;entryY=0;entryDx=0;entryDy=0;dashed=1;fontSize=11;" edge="1" parent="1" source="60" target="69">
                    <mxGeometry relative="1" as="geometry"/>
                </mxCell>
                <mxCell id="86" style="edgeStyle=none;rounded=0;sketch=1;html=1;exitX=0;exitY=0.75;exitDx=0;exitDy=0;entryX=1;entryY=0.5;entryDx=0;entryDy=0;fontSize=13;" edge="1" parent="1" source="60" target="62">
                    <mxGeometry relative="1" as="geometry"/>
                </mxCell>
                <mxCell id="87" value="selector" style="edgeLabel;html=1;align=center;verticalAlign=middle;resizable=0;points=[];fontSize=13;" vertex="1" connectable="0" parent="86">
                    <mxGeometry x="0.3614" y="3" relative="1" as="geometry">
                        <mxPoint x="14" y="-10" as="offset"/>
                    </mxGeometry>
                </mxCell>
                <mxCell id="60" value="构造选择器，并put到selectors中&lt;br&gt;（服务名 -&amp;gt; 新构造的选择器）" style="rounded=0;whiteSpace=wrap;html=1;comic=1;sketch=0;align=center;" vertex="1" parent="1">
                    <mxGeometry x="492.5" y="1320" width="265" height="40" as="geometry"/>
                </mxCell>
                <mxCell id="89" style="edgeStyle=none;rounded=0;sketch=1;html=1;exitX=0.5;exitY=1;exitDx=0;exitDy=0;entryX=0.5;entryY=0;entryDx=0;entryDy=0;fontSize=13;" edge="1" parent="1" source="62" target="88">
                    <mxGeometry relative="1" as="geometry"/>
                </mxCell>
                <mxCell id="62" value="得到selector，执行选择逻辑" style="rounded=0;whiteSpace=wrap;html=1;comic=1;sketch=0;align=center;" vertex="1" parent="1">
                    <mxGeometry x="40" y="1400" width="265" height="40" as="geometry"/>
                </mxCell>
                <mxCell id="65" value="&lt;pre style=&quot;background-color: rgb(255 , 255 , 255) ; color: rgb(8 , 8 , 8) ; font-family: &amp;#34;consolas&amp;#34; , monospace ; font-size: 11px&quot;&gt;&lt;pre style=&quot;font-family: &amp;#34;consolas&amp;#34; , monospace&quot;&gt;&lt;span style=&quot;color: #0033b3&quot;&gt;static class &lt;/span&gt;&lt;span style=&quot;color: #066555&quot;&gt;ConsistentHashSelector &lt;/span&gt;{&lt;br&gt;    &lt;span style=&quot;color: #0033b3&quot;&gt;private final &lt;/span&gt;&lt;span style=&quot;color: #066555&quot;&gt;TreeMap&lt;/span&gt;&amp;lt;&lt;span style=&quot;color: #066555&quot;&gt;Long&lt;/span&gt;, &lt;span style=&quot;color: #066555&quot;&gt;String&lt;/span&gt;&amp;gt; &lt;span style=&quot;color: #871094&quot;&gt;virtualInvokers&lt;/span&gt;;&lt;br&gt;    &lt;span style=&quot;color: #0033b3&quot;&gt;private final int &lt;/span&gt;&lt;span style=&quot;color: #871094&quot;&gt;identityHashCode&lt;/span&gt;;&lt;br&gt;&lt;br&gt;    &lt;span style=&quot;color: #795e26&quot;&gt;ConsistentHashSelector&lt;/span&gt;(&lt;span style=&quot;color: #6c00d5&quot;&gt;List&lt;/span&gt;&amp;lt;&lt;span style=&quot;color: #066555&quot;&gt;String&lt;/span&gt;&amp;gt; addresses, &lt;span style=&quot;color: #0033b3&quot;&gt;int &lt;/span&gt;replicaNumber, &lt;span style=&quot;color: #0033b3&quot;&gt;int &lt;/span&gt;identityHashCode) {&lt;br&gt;    }&lt;br&gt;}&lt;/pre&gt;&lt;/pre&gt;" style="rounded=0;whiteSpace=wrap;html=1;comic=1;sketch=0;align=left;fillColor=#ffe6cc;strokeColor=#d79b00;" vertex="1" parent="1">
                    <mxGeometry x="727.5" y="1210" width="572.5" height="95" as="geometry"/>
                </mxCell>
                <mxCell id="68" value="构造函数参数说明：&lt;br&gt;① 某服务对应服务器地址列表&lt;br&gt;② 虚拟节点个数&lt;br&gt;③ 当前地址列表容器对象的哈希码，用于判断是否列表发生了改变&lt;br&gt;（使用zookeeper时会订阅某服务名节点下ip地址的变化情况，如果发生变化则会 更新列表容器对象，因而也需要重新创建选择器进行选择）" style="rounded=0;whiteSpace=wrap;html=1;comic=1;sketch=1;fillColor=#ffe6cc;strokeColor=#d79b00;align=left;" vertex="1" parent="1">
                    <mxGeometry x="930" y="1320" width="290" height="130" as="geometry"/>
                </mxCell>
                <mxCell id="72" style="rounded=0;sketch=1;html=1;exitX=0.5;exitY=1;exitDx=0;exitDy=0;entryX=0.5;entryY=0;entryDx=0;entryDy=0;dashed=1;fontSize=11;" edge="1" parent="1" source="69" target="71">
                    <mxGeometry relative="1" as="geometry"/>
                </mxCell>
                <mxCell id="73" value="serviceUrl" style="edgeLabel;html=1;align=center;verticalAlign=middle;resizable=0;points=[];fontSize=11;" vertex="1" connectable="0" parent="72">
                    <mxGeometry x="-0.4267" y="-3" relative="1" as="geometry">
                        <mxPoint x="3" y="9" as="offset"/>
                    </mxGeometry>
                </mxCell>
                <mxCell id="69" value="遍历serviceUrlList，设每个地址为serviceUrl" style="rounded=0;whiteSpace=wrap;html=1;comic=1;sketch=0;align=center;" vertex="1" parent="1">
                    <mxGeometry x="501.25" y="1390" width="247.5" height="40" as="geometry"/>
                </mxCell>
                <mxCell id="75" style="edgeStyle=none;rounded=0;sketch=1;html=1;exitX=0.5;exitY=1;exitDx=0;exitDy=0;entryX=0.5;entryY=0;entryDx=0;entryDy=0;dashed=1;fontSize=11;" edge="1" parent="1" source="71" target="74">
                    <mxGeometry relative="1" as="geometry"/>
                </mxCell>
                <mxCell id="76" value="md5 = MD5(&lt;span style=&quot;font-size: 12px ; background-color: rgb(248 , 249 , 250)&quot;&gt;{serviceUrl}{i}&lt;/span&gt;)" style="edgeLabel;html=1;align=center;verticalAlign=middle;resizable=0;points=[];fontSize=11;" vertex="1" connectable="0" parent="75">
                    <mxGeometry x="-0.4222" relative="1" as="geometry">
                        <mxPoint y="9" as="offset"/>
                    </mxGeometry>
                </mxCell>
                <mxCell id="71" value="对于serviceUrl，拼凑字符串：&lt;br&gt;“{serviceUrl}{i}” (i -&amp;gt; 0 ~ replicaNumber/4)&lt;br&gt;并对这个字符串求MD5值（映射为一个16个字节的值）" style="rounded=0;whiteSpace=wrap;html=1;comic=1;sketch=0;align=center;" vertex="1" parent="1">
                    <mxGeometry x="465.63" y="1470" width="318.75" height="50" as="geometry"/>
                </mxCell>
                <mxCell id="78" style="edgeStyle=none;rounded=0;sketch=1;html=1;exitX=0.5;exitY=1;exitDx=0;exitDy=0;entryX=0.5;entryY=0;entryDx=0;entryDy=0;dashed=1;fontSize=11;" edge="1" parent="1" source="74" target="77">
                    <mxGeometry relative="1" as="geometry"/>
                </mxCell>
                <mxCell id="79" value="key" style="edgeLabel;html=1;align=center;verticalAlign=middle;resizable=0;points=[];fontSize=11;" vertex="1" connectable="0" parent="78">
                    <mxGeometry x="0.4933" y="-2" relative="1" as="geometry">
                        <mxPoint x="1" y="-10" as="offset"/>
                    </mxGeometry>
                </mxCell>
                <mxCell id="74" value="每个md5值按照4个字节进行划分，生成4个0~0xFFFFFFF的值，设每个值为key" style="rounded=0;whiteSpace=wrap;html=1;comic=1;sketch=0;align=center;" vertex="1" parent="1">
                    <mxGeometry x="465.63" y="1570" width="318.75" height="50" as="geometry"/>
                </mxCell>
                <mxCell id="77" value="virtualInvokers.put(key, serviceUrl)&lt;br&gt;即添加一个服务地址对应的虚拟节点" style="rounded=0;whiteSpace=wrap;html=1;comic=1;sketch=0;align=center;" vertex="1" parent="1">
                    <mxGeometry x="512.8199999999999" y="1660" width="224.37" height="50" as="geometry"/>
                </mxCell>
                <mxCell id="81" value="" style="shape=curlyBracket;whiteSpace=wrap;html=1;rounded=1;flipH=1;sketch=1;fontSize=11;" vertex="1" parent="1">
                    <mxGeometry x="807" y="1410" width="20" height="290" as="geometry"/>
                </mxCell>
                <mxCell id="82" value="&lt;font style=&quot;font-size: 13px&quot;&gt;三重循环&lt;/font&gt;" style="text;html=1;align=center;verticalAlign=middle;resizable=0;points=[];autosize=1;strokeColor=none;fillColor=none;fontSize=11;" vertex="1" parent="1">
                    <mxGeometry x="827" y="1545" width="70" height="20" as="geometry"/>
                </mxCell>
                <mxCell id="83" value="这样，一个serviceUrl生成 虚拟节点数/4 个字符串/md5值，每个md5值生成4个key -&amp;gt; 一个serviceUrl生成虚拟节点数个key，进而生成了relicaNumber个虚拟节点" style="rounded=0;whiteSpace=wrap;html=1;comic=1;sketch=1;fillColor=#ffe6cc;strokeColor=#d79b00;align=left;" vertex="1" parent="1">
                    <mxGeometry x="830" y="1580" width="300" height="70" as="geometry"/>
                </mxCell>
                <mxCell id="92" style="edgeStyle=none;rounded=0;sketch=1;html=1;exitX=0.5;exitY=1;exitDx=0;exitDy=0;entryX=0.5;entryY=0;entryDx=0;entryDy=0;fontSize=13;" edge="1" parent="1" source="88" target="91">
                    <mxGeometry relative="1" as="geometry"/>
                </mxCell>
                <mxCell id="94" value="input" style="edgeLabel;html=1;align=center;verticalAlign=middle;resizable=0;points=[];fontSize=11;" vertex="1" connectable="0" parent="92">
                    <mxGeometry x="-0.503" relative="1" as="geometry">
                        <mxPoint y="7" as="offset"/>
                    </mxGeometry>
                </mxCell>
                <mxCell id="88" value="输入字符串input=&lt;br&gt;&lt;b&gt;rpcServiceName + Arrays.stream(rpcRequest.getParameters())&lt;/b&gt;&lt;br&gt;由于每次调用Arrays.stream相当于新创建了一个对象，因而每次调用时字符串末尾的哈希值串都是不同的" style="rounded=0;whiteSpace=wrap;html=1;comic=1;sketch=0;align=center;" vertex="1" parent="1">
                    <mxGeometry x="10" y="1475" width="390" height="65" as="geometry"/>
                </mxCell>
                <mxCell id="101" style="edgeStyle=none;rounded=0;sketch=1;html=1;exitX=0.5;exitY=1;exitDx=0;exitDy=0;entryX=0.5;entryY=0;entryDx=0;entryDy=0;fontSize=11;" edge="1" parent="1" source="91" target="93">
                    <mxGeometry relative="1" as="geometry"/>
                </mxCell>
                <mxCell id="102" value="val" style="edgeLabel;html=1;align=center;verticalAlign=middle;resizable=0;points=[];fontSize=11;" vertex="1" connectable="0" parent="101">
                    <mxGeometry x="-0.5446" y="1" relative="1" as="geometry">
                        <mxPoint x="-1" y="6" as="offset"/>
                    </mxGeometry>
                </mxCell>
                <mxCell id="91" value="获取input的md5值：md5 = MD5(input) （16个字节）&lt;br&gt;取最前面4个字节生成一个0~0xFFFFFFF大小范围内的值val&lt;br&gt;（相当于无符号int，但java里没有无符号数，故这里用了long）" style="rounded=0;whiteSpace=wrap;html=1;comic=1;sketch=0;align=center;" vertex="1" parent="1">
                    <mxGeometry x="10" y="1580" width="390" height="65" as="geometry"/>
                </mxCell>
                <mxCell id="99" style="edgeStyle=none;rounded=0;sketch=1;html=1;exitX=0.5;exitY=1;exitDx=0;exitDy=0;entryX=0.5;entryY=0;entryDx=0;entryDy=0;fontSize=13;" edge="1" parent="1" source="93" target="97">
                    <mxGeometry relative="1" as="geometry"/>
                </mxCell>
                <mxCell id="93" value="从virtualInvokers这个TreeMap中找第一个大于val的键值对entry，其中entry.value就是选择的rpc服务器地址" style="rounded=0;whiteSpace=wrap;html=1;comic=1;sketch=0;align=center;" vertex="1" parent="1">
                    <mxGeometry x="30" y="1685.5" width="350" height="54.5" as="geometry"/>
                </mxCell>
                <mxCell id="97" value="选择到rpc服务器地址" style="rounded=0;whiteSpace=wrap;html=1;comic=1;sketch=0;align=center;" vertex="1" parent="1">
                    <mxGeometry x="130" y="1760" width="150" height="38.5" as="geometry"/>
                </mxCell>
                <mxCell id="126" style="edgeStyle=none;rounded=0;sketch=1;html=1;exitX=0.5;exitY=1;exitDx=0;exitDy=0;entryX=0.5;entryY=0;entryDx=0;entryDy=0;fontSize=11;" edge="1" parent="1" source="103" target="116">
                    <mxGeometry relative="1" as="geometry"/>
                </mxCell>
                <mxCell id="103" value="某服务下线后，再次调用服务发现时的操作" style="rounded=0;whiteSpace=wrap;html=1;comic=1;sketch=0;fillColor=#ffe6cc;strokeColor=#d79b00;align=center;" vertex="1" parent="1">
                    <mxGeometry x="45" y="1830" width="140" height="40" as="geometry"/>
                </mxCell>
                <mxCell id="105" value="返回" style="rounded=0;whiteSpace=wrap;html=1;comic=1;sketch=0;" vertex="1" parent="1">
                    <mxGeometry x="755.5" y="585" width="63" height="30" as="geometry"/>
                </mxCell>
                <mxCell id="109" style="rounded=0;sketch=1;html=1;exitX=1;exitY=0.5;exitDx=0;exitDy=0;entryX=0;entryY=0.5;entryDx=0;entryDy=0;fontSize=11;" edge="1" parent="1" source="106" target="105">
                    <mxGeometry relative="1" as="geometry"/>
                </mxCell>
                <mxCell id="111" value="存在" style="edgeLabel;html=1;align=center;verticalAlign=middle;resizable=0;points=[];fontSize=11;" vertex="1" connectable="0" parent="109">
                    <mxGeometry x="-0.3988" y="-1" relative="1" as="geometry">
                        <mxPoint x="8" y="-1" as="offset"/>
                    </mxGeometry>
                </mxCell>
                <mxCell id="113" style="edgeStyle=none;rounded=0;sketch=1;html=1;exitX=0.5;exitY=1;exitDx=0;exitDy=0;entryX=0.5;entryY=0;entryDx=0;entryDy=0;fontSize=11;" edge="1" parent="1" source="106" target="112">
                    <mxGeometry relative="1" as="geometry"/>
                </mxCell>
                <mxCell id="106" value="&lt;span style=&quot;font-size: 12px&quot;&gt;缓存中是否存在&lt;/span&gt;" style="rhombus;whiteSpace=wrap;html=1;sketch=0;fontSize=11;fillColor=#ffe6cc;strokeColor=#d79b00;comic=1;" vertex="1" parent="1">
                    <mxGeometry x="585.1" y="580" width="118.5" height="40" as="geometry"/>
                </mxCell>
                <mxCell id="115" style="edgeStyle=orthogonalEdgeStyle;rounded=0;sketch=1;html=1;exitX=1;exitY=0.5;exitDx=0;exitDy=0;fontSize=11;entryX=0.5;entryY=1;entryDx=0;entryDy=0;" edge="1" parent="1" source="112" target="105">
                    <mxGeometry relative="1" as="geometry">
                        <mxPoint x="790" y="610" as="targetPoint"/>
                    </mxGeometry>
                </mxCell>
                <mxCell id="112" value="① 在zookeeper中查找并更新到缓存&lt;br&gt;② &lt;b&gt;添加对应服务名节点的监听器&lt;/b&gt;，如果该节点的子节点发生变化，则更新缓存的内容" style="rounded=0;whiteSpace=wrap;html=1;comic=1;sketch=0;align=left;" vertex="1" parent="1">
                    <mxGeometry x="538.69" y="635" width="211.31" height="70" as="geometry"/>
                </mxCell>
                <mxCell id="119" style="rounded=0;sketch=1;html=1;exitX=1;exitY=0.5;exitDx=0;exitDy=0;entryX=0;entryY=0.5;entryDx=0;entryDy=0;fontSize=11;" edge="1" parent="1" source="116" target="118">
                    <mxGeometry relative="1" as="geometry"/>
                </mxCell>
                <mxCell id="120" value="获取服务对应的&lt;br&gt;Rpc服务器列表" style="edgeLabel;html=1;align=center;verticalAlign=middle;resizable=0;points=[];fontSize=11;" vertex="1" connectable="0" parent="119">
                    <mxGeometry x="-0.5595" y="1" relative="1" as="geometry">
                        <mxPoint x="26" y="1" as="offset"/>
                    </mxGeometry>
                </mxCell>
                <mxCell id="116" value="在前面的服务发现时已经添加了zookeeper对应节点变化的监听器，因此服务下线后，会&lt;b&gt;更新内存中的缓存&lt;/b&gt;" style="rounded=0;whiteSpace=wrap;html=1;comic=1;sketch=0;align=center;" vertex="1" parent="1">
                    <mxGeometry x="40" y="1910.01" width="150" height="74.25" as="geometry"/>
                </mxCell>
                <mxCell id="122" style="edgeStyle=none;rounded=0;sketch=1;html=1;exitX=1;exitY=0.5;exitDx=0;exitDy=0;entryX=0;entryY=0.5;entryDx=0;entryDy=0;fontSize=11;" edge="1" parent="1" source="118" target="121">
                    <mxGeometry relative="1" as="geometry"/>
                </mxCell>
                <mxCell id="123" value="调用一致性哈希&lt;br&gt;进行选择" style="edgeLabel;html=1;align=center;verticalAlign=middle;resizable=0;points=[];fontSize=11;" vertex="1" connectable="0" parent="122">
                    <mxGeometry x="-0.5048" y="2" relative="1" as="geometry">
                        <mxPoint x="23" y="2" as="offset"/>
                    </mxGeometry>
                </mxCell>
                <mxCell id="118" value="得到更新后的&lt;span style=&quot;text-align: left&quot;&gt;serviceUrlList&lt;br&gt;因为缓存在监听到事件后更新了&lt;br&gt;&lt;/span&gt;" style="rounded=0;whiteSpace=wrap;html=1;comic=1;sketch=0;align=center;" vertex="1" parent="1">
                    <mxGeometry x="302" y="1918.57" width="150" height="57.13" as="geometry"/>
                </mxCell>
                <mxCell id="125" style="edgeStyle=none;rounded=0;sketch=1;html=1;exitX=1;exitY=0.5;exitDx=0;exitDy=0;entryX=0;entryY=0.5;entryDx=0;entryDy=0;fontSize=11;" edge="1" parent="1" source="121" target="124">
                    <mxGeometry relative="1" as="geometry"/>
                </mxCell>
                <mxCell id="121" value="&lt;span style=&quot;text-align: left&quot;&gt;此时会发现serviceUrlList的hashCode值和之前不一致，重新建立哈希环&lt;br&gt;&lt;/span&gt;" style="rounded=0;whiteSpace=wrap;html=1;comic=1;sketch=0;align=center;" vertex="1" parent="1">
                    <mxGeometry x="550" y="1918.57" width="150" height="57.13" as="geometry"/>
                </mxCell>
                <mxCell id="124" value="&lt;span style=&quot;text-align: left&quot;&gt;得到服务状态更新后的结果&lt;br&gt;&lt;/span&gt;" style="rounded=0;whiteSpace=wrap;html=1;comic=1;sketch=0;align=center;" vertex="1" parent="1">
                    <mxGeometry x="737.19" y="1927.14" width="150" height="40" as="geometry"/>
                </mxCell>
                <mxCell id="127" value="一致性哈希原理参考：https://xiaolincoding.com/os/8_network_system/hash.html" style="rounded=0;whiteSpace=wrap;html=1;comic=1;sketch=1;fillColor=#e1d5e7;strokeColor=#9673a6;align=left;" vertex="1" parent="1">
                    <mxGeometry x="642.44" y="940" width="336.06" height="50" as="geometry"/>
                </mxCell>
            </root>
        </mxGraphModel>
    </diagram>
</mxfile>